<mxfile host="app.diagrams.net" modified="2020-12-22T09:12:51.701Z" agent="5.0 (Windows NT 10.0; Win64; x64) AppleWebKit/537.36 (KHTML, like Gecko) Chrome/87.0.4280.88 Safari/537.36" etag="eONccAWnPuVmPDlFXg-L" version="14.1.1" type="github">
  <diagram id="UrPjfpYNzIbdTurwAq0m" name="Page-1">
    <mxGraphModel dx="1550" dy="868" grid="0" gridSize="10" guides="1" tooltips="1" connect="1" arrows="1" fold="1" page="1" pageScale="1" pageWidth="827" pageHeight="1169" math="0" shadow="0">
      <root>
        <mxCell id="0" />
        <mxCell id="1" parent="0" />
        <mxCell id="cMJ7TMU19dDWg3M_NZdB-2" value="" style="shape=image;verticalLabelPosition=bottom;labelBackgroundColor=#ffffff;verticalAlign=top;aspect=fixed;imageAspect=0;image=data:image/png,iVBORw0KGgoAAAANSUhEUgAAAIkAAAHpCAYAAAC2px8nAAAgAElEQVR4Aey9B3Sb6XXnTc24ZHM2Z789e1LsZPfbTc4mm7IbO55mx/nibDwz6hp1iR2dYFFhR+8Am9gr2FFJStM8o5HYKY2d2OmxE8dJ7DguY3s8Y3uqRhIJ/r9zn/d9gRcgABIkoAZQ5+pFB4n3h/+9z33uc5885H5yn8Amn0DeJvfHvXsdQDJjT0r2gPV1YD2UYaP3SGzr6+sIAdG2DoS2Y7Gvs8XrST+iJJ/xht97k/dbAxCxdawhhDXQkf6ts39xTzR/412ChPhYy6yth7AeWk9ooVAIa+vA2vp6xELrWIs19hh6XDITvUbM620GQqonfDuPvw1gNWwhrGKNt9ugf4RJsp9tQZLsBem+zT4Yuj8UWkeIvs0ZteTKgNAqNrW1NSCUxDa7P5lihrahpqEQSAO3aqSmJKjhk0JvSbetkYXYkbsz8VndJiTid914eTPa6RlroWTfzDj30ePjWbJveLzH87fR+eFO/hZA2QpMiR6TDBK6L0ZRt+SGo51kcmfD3iPmIRHfw0lMYj7YPSlDQlSG6AMhmtfXEArdZkesr0EwgkAMCnddxD6d2JgTyGIB+sxEJpb4RLECeww9RwQLvQa9fuxzolzLOrC6vo5VdqTLwO0YE9+3lcuxz6fr4vMR7/IqxQYiFyX+3Oiy+DPYzmX6DOg8MSP3yyvL7TU6d/TenLIk42QbkKzj/ffeQWj1FkJrt3H79ge4dfNG2G5+8D7W1ggc+oUIJEEauQCJ/icXsxoKhW2NxQfRHxZ9cMwlkVviXVNsHMpclSiGEB7PnssC0xAS/aMT9gGAG2ILATfWOftgHXifLBQxeqz4OfQYMuE5dHwvtB6299fX8T6Q0OjxN0PArbWIxYJ2ax24FVpndju0jptr67ixto4PREavEWX0urzR89fWb2Bt/Saz2+u38f7qLby7egvvh9bw1m26nb7GiX9ShoQCPqYTqzexvnoTqzffR+j2B+wyXSej62tiW72BtdUPeKPLNznICLTVW1hbvYV1UqQYC63eZiCur91mz1mjP4i31dsfgIyD9RboMcxWhdeh226KjN5DsJtMDVdDgNhurwFiY99yNgKg0UB8W12nAJgzuiw2eg59/MksJHzLw0f+i8V/wbgvQgih9fhGX8LE70Annu5/j0eVML+J26GbuLH6AW6s38KbN97F7TXyDIl/UoeEftlbN4C1W0DoNmfsYxC/Cb3prRijGJuMbqf7k3108e4Tvz5dpsck+6H7YwWeBzzsDGN/x5vsQ6QPkvs96cN9h7d3gdWfArfeBG6/GTmu/gQQG90ftjdEl7nbQ+//CKEbEVt//3WILfTe69hg77+OkGDv/ACht76P0FuvMVt76zWsvh1jb30fqxvse1h96we4/c4P8d5PX8Pa6g3cfP9t9qVeY+FD4s8yZUiI3NBtguQGvvvNr+Orf/FF/O2fL+Nv/myJtxX89Zfm8TevXg3bX628gi8vfSFsf77wIq5ffQ7XZ5/Hq2RXnsP8i0HMvzjFbIE/Lr4QxMILQSy+OIVXLnpwRWSXL07i5ekJvDw9jpemxvCFYMReZJdH8ULAzdswXvS78ZxvEM/7hvCcfwhf8A7g5clOXObtFU8XnnM343l3C2fDLZjqNSHYa+DNCG+nFp6ORng6NPB2ajDeVo+RpmqMNHM27DqPAfsZDDh4s1Wh26xGT9jK0WUqQ7epjD+q0d0oR49GETa63tUgY0aXO+okaK8tDduFmhK0VReHrfV8EVrOFUZZ89kChO1cAVznSuE6K4HzrAz2cwroyqS4OuMDSGk/eI+pdWJEgJQhoRcLrb6Hr/7lMizVpWirK0RX/Sl01R1DR/1xtNefRHt9Pjrqipi11xWis74YnQ0lYetuLEWPVoIejYQduzWl6GCPoccVs8f36qQQW59OiojJ0K2ToFsrYccenRRxTStFTwLr1UrQp4sxrRR9IuvXy9Cvl3Nm4I/Cdb0cgwYZRgxyDPPm1svgNohML8OAtjShDWpKMaSTYkgnCRt7DXod3ob0Urg3WOR+4XGJjkN6GfpMEgyZpRjQSTCgU6JbW46JC3bg5nvcCC8ZIdgmJCTFX3n1FbSbKjFoUWBIX4QhXT4GDPnoNxSiV1eMXk3E+nQl6NeVoo+3Ab0EQ0YZBnnjLksxaBRMhj5tCeh5gvXrJejXl4ZtwCjDgCliQ2Y53FZF2IasCgybE5vbrEC0yTHhLMe4I2LDFmX4NeixI1YlRqyqsI3b1Zh0lmFCZON2FQSbcKgw6aTHxDd6XqC1Cv6WiNF1sQXbzmLqwjlMXaDjRptuP4+ZzmrMdCSwzvO4NNCALwxp8Vx3I8asVehpLIOnywXcej9TkJCvD+Ef/voamrUq9BtluDyoxeyIFq+MaHF5RI9Xxsy4MmrDlVFr2K6y63QbZ6+MWCE28WPp9vlJJ+YnREbXRTY74cDVCXvYZiedmPNEbN7jwqK3Kakt+1ux7G8J27VgG64FOFsJtOH61IUoe3W6A1+cEawT16dacS3QHLZXg6340syFsH1xug2vTrUmtRV/E675mxMa3b+ZLftcEJv48cv+JixMOXF9uhXXg23wuap5SJzALVISihOT/2zL3WD9A/zdXyyiRadCr0GK+VETVjwWLHotmPfasOBzYnETW/I7ETEXFryOKIt6vt+JeY8N8x572Oa8dsz57GBHrx3zPkeU0e+w5Hcltdj3jH4PW9TvQ4+dm7RF2YLPgUWRLXjtiDXuNel3T93mPFYs+Ozsc1r0OxDXfPS5Rb9v1Ht5bbg8YcbVMROWvE6M2SrQ1aiAp5uU5N3MQMINgdfwL1/7Mpo0SvSbZFicsOKa14oFrxmLPu6E0UmmD1Y4UbEnZMFL9yc27vnc/VHAEHxeJ+b9TiwkMbqfHrfZe2x47U3gjnq8145FryPaRNCIAYp7mZ672eM3e8xm9/udmPNbGWivBlswZitHv74CY20m4OZbCK1S5if5T8pKIkDyr//4ZeZuBkzyCCQeARL6FnJ0C2pB1zf9QDb7wIT7vQ7M+x1YSGJ0/2LMN0z4nRIdY3+/2MdF3c9+B/pCWJPago+UNb7Rc5eCDiwG7MzEl4XbFvy25K/vt0W9hvA84UivORuwYtFvw3WCxF6Gfn0ZB8ktgoRyJ5QaSPyTOiQseXML//r1r6BVX4Y+IymJhVOSMCR2LHgIElISzq3Q5Q3fuh3ctjVI0vuesb//vD/+yU8ExYbb/TbMeS1RxqDzWjEvmI9cTuL3ocfHvkbs9dmAmYekOQLJBSNw62cIrVJOOEOQfPPrX0EbQWKQMkhW6I/xmJmC0C9O5C7QNyVgZ0aXF/1pMvr2+je3xXS+Z+zv7rOx32HOb8FcYJvmt2DWZ46yqz4TxDbrN4O9B72PYOL3o9fwmxObj3v+UsCC61NNGLOp0G9QYbzdCNzOkJLQnAz9/Ps3/gqdWimGDMWYHzNwQZXXjmWPA0sseLWzoItiFDIKwITL6TjS621m6XifZK/B3p/+1u0oCj1H9DkJf0vs+3G3i5Rkw/vZseBPbIt+OxY99GW1YfmiC6MOOcsFjboagRs/wer6TdDUQLKflN2NAMl3/umv0aUpxbAxH3MMEm5Ec23SgWUP/VGc1AsBa6xU565n1hUKny+dhyU6H0E7li85MeLgclDjjnrg/Z8ySNgcU5JJvjRAUrAREvYN2ULkLgSiuWP6gvqYz1KAZDEKklKMOxrCkNBMOVXxJfpJGRJudANElCQHSdSoJ+Yk3e374kNSsgGSRIDQ7SlDstHd5CC52yAke3+CZJlGmjSAuOTAqFPG5nBG7XVYf/+nWMMtVgaRVkiEF8spyf3hTjlIHJiPgkSKEXsd1sSQJPY2qStJDpL7Aw5BXSKQWEVKshESIYwQzq/4mLK7EZ78nX/6K350k3M3wgm5F48RSMTuZiMkwnmNd0wZknBM8g1uCOyONwTOjW4yNlpJFUTKs6zQFELAhsWLDoy55BjQSTFsq8Xau28ihNvpj0kEWRKUZMhwOjcEvsdGNGKQCJJrXifmKCM+Y8OYSwGqzRm21GDt7R9jnS3TSnNaXhhPC5C4DXGSaTkluaeURIBkUQyJtQZr70QgEb786XE3fNIlB8n9EcCKlSQWkpAIkmR15SnHJAJxwhB4SJ9zN2J5v9cuczGJ4G7sGG/i3M2QuRqrb73OxSTpnrsJQ/KNv2Gjm0H9KcyO6bFIRT4+J9jcTc7d3EPuhpJpDlZ4tDDjwESzEgN6KfqNZ3Drpz9ECLewSmudk/xsX0lykNwzICRTL2EITNVpCSGhhWEZmbvJQXIfQmLHRJMS/UxJzkaUhK3jTiwlaVISncjdUE0JXypwDw8Nk337HqT7qFRjmRWNk5I4MdGswgAtTTFW4tZPfwDqVkJLU5P97BgSClyvjmoZJMt+F655cpDcM5DRCgRKpvksuOqxYn6qGZMt5RgylaBHL8dNWvZJrVeSzNsQPDlIHmS1I0j8cSAxF6NXL8ett17Dbb5Fh5BJj6coOUiyDhI1hswldx8SVi73IH/498vfFldJ4kMST0GE29KiJFeGNaymdcnnwnWPE0tU5HK/fJAP8u/JxyTLHnM4JvG0VmDQUIhOTSlu/ez7LNFKXaGS/aQHkhENW2OzmIPknhsWU+C6tAVIMh6TXMlBcs/BIYyw7joknY2loCHwKwQJle7fSSXZyuq/B9mVbPFvSwyJ5A64m3/5W3Qb5RjUncLlEQ3m2FJEJyu6zXgyjQDx2zZZEWjjlpVu8cMUvnkP1FEIXL1WzNJ82nQLvG2VGDAUor2hGDfe/F6mYhIu8/IdHpJ+ARIvLWy+g5BsZUUgwZSDBMteS0JIKGbdrE3nNgLXBJCwlhMEiWgFXyZPEGv7QK0fklgm3/9+eG1eSRJC8pPvsaXiGYCEGy9951/+Bj1GOTYqSfohiW1bwbWEiG56E15Oyk6e0EQnje0u7gcoYn/HFCBJ6xBYeLHvfuvv0UlN4Yz5eMndyPqFzNNkElOSnedJxL1BqH0FXZ+btDKjRdXLgaYoo8dQPYvQDYmDJtIBiLr/ZJ3rSRCTUJ6kvb4IN0RKIpzXeMeU3Y3wIgRJh5Ya5HGQUEOZeQKEB2UnybRY5aATPDthYS2lIieaOhlRTzTqjeZifc9WAi3stgWPSwRUpF1U5LlZEqskUJJBYxHa6orwwU++G3Y33C4FwtmNPu4Ikk5qLZkBSOhkkmqQOiwHqJ8a5zboOt3+8rAeXxjQ40WRvTRkxOVhM2u+txJoxUqwmT1f6B8mfp2sgSUJJBfqoyFZZ52+o+EQru0Ikg4RJNR5iCkJczc0RZ3at1VwL8IJnJuwMkCuTXEn+8VBDaY7z2PMoUS/oYhv9yn0duX6sQ4aFZhwViF4oQbP9jYy9yKAtRKMwEa5AzLhvR7YYyJIDIWIhUQAIt4xZUiE9O1r3/oqOrUSDBpO42V3I+b8DswRGKyJTWqQiJWCvvl0fdZjxvXpFlwdMSLYXIlRkxQjJhkGTbSwSIFRmxpuswqDRjmGzdRLtQqjtnLWEJia9LotCow6yvCS24hXp9tY18SFSQcWJrlmeEv0AT7ooMRAsjjdCt+FKgwZixgkN94UuZt4dPC3pQyJUAj9w299DZ0aCQb1p3GZh2SWNbOjzOv2ICE4yJ1Q8dJiwIEvDGowbpFhVC/BpFmJAU0Jms4eR3Xx/4Xq8OOQ7fsUJHs/AcX+R1B57A+hkexGa00B+o1KjNgrMGhWshaiz/VpWf/VZV8zg3hlwoEljzP7IJnhIHGbihkk77+RKUj4jjgMElKSNEBCci8OTleCTbgybMSISYpJixxjJjnazp5E2TOPonD3/0bxwU9B8szjkB58DKUHHoXs0BMo3f8oTj/5f3Dqyf8N1dHPQq88CLdVDbe1DH16KS521WPJ18Ka4i6M27DkyUIlSQKJ8OWPJyipK4kYkrhKYgcn5anFJDR6IRUhYKhzo9dWBre2FJM2FSyKfSjd/fs4/dTvoWD/J1F65AkUHXoChfseR8G+x9ixcD9dfhwFex7jj59C1ck/Ro9ehmF7OfoNEjzf18BS9eRysqKcIdbdJIEkHhzCbduG5Eff/gd0CUoyrGF5EopL6CQvUWCYQkpciEkIElKRS9216K8pRNB1FvrS3ZDt/QMU7/0kZEc/jcJDj+H4/k/i1N5HULD/0yg+9FlmBQc+w64XHfxD5O/7NAr2PIKCp38fVac+B7ejgnWJHLErMTdhwZLfhuVAar/jfRncJoBkyFSM1toCvP/Gd7i5m7TXuPJK8qN//0d00eiGZoEJkoATcwEnlli77tROALkaOgkECbXKdpulGDOq0FtfAsWBx1C055MoPfQ4ig49juIjn4H05OdwTnIA9apj0Fachq7yNDTlJ9GoPoE65VGcLT2A8tNPouLE5xgoWsUBjLecQZ+xFM/21mBpys4mB1MB+UGDpLnmNG68+R0mFpSWT/azfSVJIyR0Aq6Om1leY6arGv3GYvhbalF59LOQHngcxQcexck9n0L+gSdQUbwHGvVxNJYdh7b8JHQVp5hp1CegrTjJ2ymYqvJhUB/D2fzPQ/7ME+g2SDBok2GsSYFrl6jlOPXCf8CHwUmUJBaSjMQkTEko45oGJSFISE0opzFspWFuKXo0chTt/iRKn/k0So5+FvmHnsCZ0oPQlJ2EQX0aOvVxaNXHmOkrTkBffgLasmPsdgN/vVF5BPbzBTCWH4ar9gTcDgUGLSWY9RqwGMxBEq0kieUkdSXhF2n86DtfR7dOigH9KbxMRUdBF2bJ3bA5lNTcDcUkFIuQu+nTF2LMroJGeRiF+x9D4YHHcHL/Yzgr3Q/juULoyk9BqzzOQ3IEOvVRGCtPwFB5HPryY9CUHYZWfQS6MgLoBDSqIzBVHIX1zFH0myXosxTj2f5zWKRW2lmqJIOmYpCSvPfGv2coJuEhef17/4weowJ9upN4iSCZaQblSZaCNBmX2mQaqQhBQlnVfkMxJpvLoTjxOZza8wiKDn4GqlN/Ck35cTSqj0FTwR21FUehq6CY5Bi05Uc542/TVRyFlh5XfoJ7jvoZ6MsPsR2k3FYJZrrPYTnI7zCRYmb4vopN4rgb/4UqDBiL0Fydj3de/7c7AYmcQcKUZHr7kJCSUPqdxSP6ItAopGDfozi5+xFIjvwRGsqOwnDmNDvh9aojDBhNGIhjDBYCJmJHeZhOoJHURf0MDOXPoJe2GbNKMN11BsvBLKhcSwGStM7dCAEOpyTphcTXWokBYwm69UXI3/sITu99FOUFT0FbQUEppwoETCPFIzGQCGrCgcIriToCCSlJr7EUQ1Ypgu0VWA7S/jyp5XLuKxUhhYwDCaXl4ymJMN0Sb5STckwivNjr3/tG2N3sVEnowyd3M9mkxrBFitba48jfSyOaR1AjPwRd5UkICkKXye2IISFABBXhLpP7IbcUDUmPsYRB4msr55REtOvUfQfAVtxkFCR2LM60wt9+JgoSoXwxHhzCbSlDIjzx9e9/A70mJe9uGrGwA3cjQDLuVMFtkaC55hgK9j+OU3sfRbXsIIOEYhIhLolVEgJDX3mci1EYMEehpWEyxSS8u9GpD6JLV4RBiwSBCxwkFGRTPCTkaR5IUCixOWnEQsCJxelmTHdXY0BfgJaafPzstW9idT0DC8YzDok5PiQsaA2DEu1uBEgERdGWH9kAiZYg0RdnJSSLIkimus6HIXnrBxFIBA8hnF/x8d5TkiSQkIIIJg5cN0KSQEn02akkBAllxElJ7ltIhDwJuZshswQt1RvdDSmJAAgdE0HCqQlBQqMawd0chk59KKIkfOCaLe5mK5CIlSP2cspKQrJEqZI3Xvtn9JoUGDTn4/nBOsxPNeEq0UqFPCnmSYQhsKe5HKN2BTrqTqJw/6PI3/sHqJbuhaHqBHR8rEE5EM4iQ15BSSh4FSBpUB9DXflJNJSfhKbsBHSq4+jS0IbVcgRaK7Dss6RcPXd/xix2LE6asBh0YS7QhJmeGvTp89nO8D/69j8yHtI+d7MBEmM+XiBIpnlIWOFRask0ARIa3Yza5WivO8FD8ilUS/cxSLiTHwFDGM0IYFDgKjyGjgySipNoZJCc5CBplHOQtFSwBUv350lPddgugiTIQdLPQ/L6t78ehiStMUkmIZlwlWUWEk0EkiWvhc08P/ig3E1Ivs+7G1OGlGQfuZuNSiKoRTIlIXcUrSQnoCV3I1YSX/ZC0qc/zdyNWEli4xDx9e3FJADe+MG/oM+sQL/hNF4YrN2Ru6FvMwWRzN3Y5OioP4miA4/hNA8JuRINTdpVHGP5kFhQ6Hp0nuQYGtRHUVd+gsUkWvVJ6MsoJpFjyCiHn9xNlkJCeZJhcwmb4PvhN78adjdiKGIv7xwS/Sm8MJQeSFjgGobk0ZQhEeChI4OEjW5OQlN+goMkpyQsmRYPkvTHJLFKcg9C0qg+ilqWcSVIeCURQZKtMUkiJblvIIlyN1T9voeGwPuYK2HuRnArormaeKMbui1aSSLuhg2Bs8zdLNAQeKqJDYGjIflaBt0N5Ul+8K/oM9NqulN4fmDn7oaWYdIs8Ai5m4aTKH3mMRQdegznJLvRUHYYjeojbCZYV3mCKxVQH2VxCrkWsZsRAtrGcopJjqOeJdWOQ6+mmESKIbMMvhY1H5M84OWLbP0TrQywYJ5ag0w1Yaa7GrQWmOZuaDsa+slcnoSHZMBwCs+lCRJ/W1UYEunRJyA98mnUyjklIRA0rK6VJvJOsVlemqMhhSETQBEgoYxsXQVBQjARJEdFkKiw7KPlG9kDyRw1GSJIempYpyOC5Nv/+BcRSNK9wzjLuDJIFCBI0qUkYkhkR5+A/NhnWcGQraYIttpCGM+cZhN3LIOqJlg4FWksOxwe/WwNkrIshIRXkihI/jIMSVqLjlgyLQT8+DXO3cRTklTLF2kITO5GDInkmcegOPZZ6MoPo6lBghaNFM46CcxnC6AtOw5NWbS7EdyOoCjJlSQbIeGUhJUKGAqZu/n213lI0t3HVYiCf/ajb2GALaE8yc3dCGl5knA/Vz9K6fatZjRjIZEdeRzyI38InfowWhqlcNWVwFUnhbO2FPbzJTBWnWLq0aB6huVP2PyOqN6VIKkXuRtdmdjdZBcky14rt3gu2ISLvbUsJmmtzce//cNXmJLwZcvscrz/Us6TCOWLVEQ7aFezoqMXhkRzN9RcNsCVzqVSzBMLifLIE1Ac+Qx0Zc+grVEGV20xmmolvEnhqC2B5Xx+1LyO8cxJLqnG50kESKhKTVt2RBSTZB8kVHREE3yX+upYVwGC5Ftf+zJjIvFiCg6ZbUPydoYhUR15Asojn4G+7BlcaJChqaYYzbUSNNeWwlVDyiKBq6EU9toimM6eAikKxSaUeSWjijQxJLocJPcfJNTkRmxiJWmvPwlSEuXhz8BAkDTK0EyQ1FDVWilaaqRw1pTAWV/CQKGj+Xw+dPxMMBsJkath7uYYGzJHK0k2jW5sIHezUUkK8K2vce7mjiiJMLq5Qt2OvLQST+iMGD8mYV2QqFJdZCsBFwJtVawQukeTj8pjfwT1sT+CRrYfbQ2laK4t4qy6FK5aik+K4aorCltLYylc9UUwVh1jwa5GfRh16mdAR235MeiUh9GlkcBtUsDfUo5lf5YMgamHnd+GearnDTTh2b5a5m7a6k7jW3/7KvMnoSTDX3pAWtzNs/01bILvis+BWQ/1OuMgSRS0EiTUH0RsK34XAq1VcBtLMWAoxrmTf4Kzp/8vGqX70NpQjJb6IjSRNRTD1VCM5vpCtIStCE21BWiuK2THppp8WM+fgL7qMBpVB6EtOwRDGQfJsFkJX3MVllIIqhP9HffD7bRshLoozPtcmA868WxfDdzGfLTXnsK//uXiXYDEnyIk9AfwFobEJOEgOfHHqCl6Eib1YXRqZQwAV30hyJz1hWiuK0JLnQAKB4kAEx2b6gvhqM+H6QwtCT0MvfIQerQyuBkklaw9xv1wknf6OwqQLPjjQPJXS2FIhAEJuyHmv50piY0b3YSVJE2Q9OuLUZP/J6gteQrWyqPot6rRri1Fi6YYTQ2FsNfl80pSxOAhBSEwBEhIVezVp+BsyEdTQwls50/DVH4EvTo5Bk0KeJzqLIXEFa0kIkhiuIi6uiNIhvghcLogCbadwZCxFP36ImhLn0Jt6edhrToCt7MCfRYlukwytOlK4Kg/zdxKC6lJPQcKHckEUFz1BexxznoCioLeQvTpFKyexOMqzz5IyN0ExO7mNL7xlXkGQ2iTREnKkAjJtLd//G9wO6jb4UmkC5Lp9nMY0BejT1cES9kB1EmehO3MEQzay7icjL0MXWY5WnRFcPExiFhBSFHICB5XQyFcjQVwNhQxSFpqi9CnV2DIpIC3qSKrIFkO0Ba8VAjtxLP9tXAb8tFZn4+vXn+ZQbKWpIcrPeCehcSs3Aedcg+aa05g0KnCgF2BPocSfXYleh1KdBnlaNdKOCh4FWGA0GUGSQGcOUjYeueEkLx6OQyJ8OVnN8T8d3chEUY4XgcocBUriVm1D0b1flxoLMB42xkMEBw2BXqscvQ6lXA7KzFgK0enXsZcTFhFaMRDkNTzkLAgtxg5JSElcUUrSaYgEfzXOz/+NobsO3M3Qp6EOiESJDO8u+nXFcGs3gO9ajc6tAUIdFdjtKUcgy5SEhl6HXIMOsrhdlYxUHpMyhhQaKhcyJTE1UBDZ8rWFmavu/HbWZ5kLuDAswPkbgrQWV/Iu5t1pN3dCJC8/7PXGCSDxtMpxySsJYIo40qQXKNET2c1RoylGNQVQa98Ghr5k7jQeBpT3bUIdtdgkpJt5HpscgzZyjDkKMcgtd+0qtFjUqFDJ0NLfSla6yVobiyBq7EQTY00IipBU00BG90IMcmKjxaSpbqG5f57PMtJealbtwVzAQteGGzAsEGKzjo5/nrpBQA3sb6+FuNgoq+m7G4ikDFX6ywAACAASURBVHyfQTKwTUioF70AiwDJpY7zGKYeIgSJancYEgLE13GO2URrJYapv7xVgT6LCv1WJQZsagw5yP1UoNugYvM8NOx1NOTDwbubWCVZppnqbILET5CY8cJgvQiSF8OQpDUmSQrJFjOuBMfmkESUhCDxd55HoKuagUKK4naVod+mYkNjUhOKTwbtFei3laPLoECLppQpiYOysHXFLE7pNyjZ6IbLk6S2yvB+BSqsJAwSUpK7DgltHLB5Wn47kEz11DJQvO1n2dHTfh7DzRXotyvQb1Gg30rD5AoM2nlFsarQaiCXU4SmuiK01hdjwKjiIHGVY9HLdZ++X0/+Vn/vrUASSre7IVmiWcP3f/Y9DNFJMebjYs85zE03YY62C/FFJvgS/iEJlIRiEsHdGMq4wLW1/iSLR0hNoqy3BpPtnKLQyGfApgpDQrD0WFVoN0txQS9Fq0bCIOnRyLIvT0LzZBSThJWkAYO6UvQ2KPCV+ecBrOKOQjK7Q0jEMQlBolPtRlxIuqoR7KlFoKcGno6zGG4qR79NUBQVBqxq9DnK0WOjLK0KHXo5OjRS9IaTaVmUcY0Hib4UPTGQpDUmSaYkmYKEYpEoFemqgb/7PKb6ahHsrcVk+5moGGXAqkK/Q41ehxo9NPKxqNFrVKGf3I2Ry7guU/VcVgauDRi8s5CUR7mbtEBiKsWgtgiGst3QqZ5Ga0PE3VC+hIyA8XWeY6D4u2vYbRMXzmDYpWbBLEHSZy9Dt02FHgpqKU6xVmDQVMZaT1Dgei1A+908+KBwMYkd8z4LZoNc4ErupqdRga8skLtZy5y7ufHW9+F2VKJffyock2wJEio0ouFnwIZ5Ly0asmFh0oZr/iY811GLIV0xhvVSmJR7YVTuRUv1CVzsacB0Vx2mOmsx012Pqa5aBDtqEOysZZfpPrrdd+Echu1lGLGXcfNKFhVoEnLYWQG3RYVBk5xtbjDhLAPlSbICEq+dLUSb81gw63PipSEd3IYS9NQX44svBwC2VWPy2rSU8ySCu4mCpPcsC1y3DEnAhsWAlYfEGoGksxaD2mIMG2RhSJrPH98ICcHRWcvAme6MwHOxuwGB9mqMOcvB1MRC8YkKw5SdtSgwaKJt12QYZ5C4ssTdRCCZ9zbxkBSjt74QX3zZz0MSnTyLvXaXIEmgJHEgiaskPCCkHoLCEBx0/dk+DQdK8xkMOioYJG5SFqsyuyHxWjAXBUnRfQpJB68k+s2VhNxNWE266pj7EdzRTHcdgl0NGG89z9zNoE2FIYscQ+RuBCWhff6yIibhleSuQPL2axhxVWHAcHpbMckC724WaE0uzd34m/B8Zx2GdCUYNSpgVOyFQbGHxSSXehvDikHKIaiHGJKo28gddTfA016LEVclhggSsxy9ulIMmiSYbCrH4mS2ZFzjQKIvQl9jMVZemASwjmTDX3I923c3b7+G0e1CQivcAxYWkyz6rKwgmkHSxUEyZlLAoNgLvYJ25zwJARIBBAEU4RgLy3RnLQJd9fB3NcLTXo1RVwWGLAr0GkoxaCxlkCxMZDEkOoKkBMvPT7Dwg6rlk4FydyChqetNIBGUJBYSAYykR4KkuwFTPVpM9TTC01aNcVc5Bs1yDBhLMeFSY57fFPJBdzm09zG1/poTu5s4kKS1EDo8utmJksRAQhtOx1MScjexkGxQDd79REETVpIGpiiBzjoWzA7blAwSGt3MT2ZHY70wJB4L5jwubnTDICmOUpLYEY34espKIhB3k8UkZ1gTm4u95zA75QI3BLYnX3fD50nm/RbMe+hEWdncwoq/CS901bMh8JhJCaNyX9jdUJ5EDIf4chQcImAol+LjcynT3Q1sX+ARWxkG9KWYcKjZJtIPuorQ38e6bfso3WDFgq8ZL7v1GDYUY0BbioVLoywmydjirNsESdMZLpnWex6zAQc/wbc1SGijxDmPme2quex1YiXQhBe6CZIijJtUMMVAQqMZAoIl04QciQiKWFimuurgZ8+pBeVPaPPoUQaJBJP2cqx4m7JjdENb1/k5SBb9LRwkxhIM6iSYnXHzkIh1Y+PlbSvJRkicO4PEJ0BSnIMkjUNzpiQJIJmbGQ5DIniIjYhsY3QjvNhGSDglod5cSZd58u4msZKIIJFzoxtyNzkl2d4801YhiQeHcFvKSiIErrff/gHvbk5ipvcc5igmoUkzmpdJthaY7eZEa1M5d0N5EuZu/C58obcRA5oijJvJ3UTyJNuLSXLuJhyTxCjJCO9urgQHGQdpj0noVal70uo7HCS0OGum9ywWZlpwlepWaXt3vn41bmDICo6smPOaWUxCsCz7nFjxufByvxb9jYWYsJaxyT2a4Gs6dyw8d0Nxx1aCVva4XEzCYq54SkKQDOmkeNnXx0OSvB9WykpCr0pzhvEhcTJISEmoRDERJAt+G+Z824MkNkBNdD0XuHKffzJILvsjkAhhBKMm5r+dQeI6w5Z5RpRka5DM+7evJImgiL09GSQTdnVWj24EJbns78+Mkggxyeq7PwzHJNM9grtxcrUimymJ1445NnanehIrlnxOLPPupo+5Gy4mIXfjOnuUDXtjIdjsOkESoKEyX4MSNQR2ZNkQmM+TCEPgEQM3BH7J28sgSZaSpwekrCS0pIIa46zdeAOjTWdYZdpUVxUWL1JMQoU8XOCa1N34HKDVZBS7sKUV/EKtlwa16NEUYMKuBC3zNJXth73yGZYf2QyK2PuDVGfSXQdWb9JVy/IkY3Y1Bg1SeJwV2aMkfFp+3mMFQXJ5xIBhfQmb4HturCPGscS/mjIkTEkYJD/GiIv2mD2Nqa4zKUFCYDBIfBFIKH55eVCL3hhIHFWHtw1JMAxJXQ4SMSSGEvQ3luD58c74VMTcuiNIRptot+rUISEFiQcJKYkAiYlXkhwkCQYAW0y4CXM3UUpyJyChnidrN37M3A3Vk6SqJBsg4UdCLw/qeEgUnLtR7cPOIeHKHCkmEdzNZDbFJAncTb+mBM+NZ9DdrIWEmOQsm7tJByS0c9Yrwwb0aQsxbpWzJjYUuNoqDm3L3bDAla9Ym+mKuJsho4zN4az4smTuJgaSV0YMGNQWYkgvxczIBeZYQutpzpNQTHInIdlu4JoMkjEbVctnLyRDBIlOiosiSJKNcLYVk9wZSPazrGsmlCTbIWFKknlI1vkhcCbdzc4goSFwIIG7yWZIaAgcD5KYAU3U1W0pCU0IhW6+iYnW86wQOhMxibX8IFMSCly3Ol8jzpUQJOIh8ExHHcb5PMmYVZW17oblSQwlrOhoarCZwbCeiZgkDEnL/QEJwTPTmYMkkkwrxqBWgmkRJGmPSXKQ7Cx3EXfic4t5j1SfGzdPor+DkIxnUknU6XM3Wa0k/FrgcDJt2IBhmruJUZKoICTmyjZjEmD9gzcw2VYdjknmp5sw66dZYCeW/HbWPzQu9azoKCbjyprkR+dJ7BWHoJfvhrls/45jkqyFhH3WdlynWXe+Wv7KqAlD2gIMaEoRYO4mlHTNDfGSNkio01EOknvMDYUhsWFukltSsRGSNQZJBmKSjUqSg+QeA4RinLsOyY03MCFyN/cuJNzcTVaObhJAMsi7myBzN5ySxIQhUVdTdjdU5sZantz6KTwXaGfIfAQ7q9jGxFcDVHRE36jUYxKKX2juhrpBj9vkcFQdYQvGaTaY2kqIcyBbuczlSWpB8zaUop/pqMWEswI0dzNiVmZHnoQg8dFifCsocJ2ddILcDTVUHtCUwN/vYp2OkrmabcUkYUhuvwVvuwBJJeanXGCQMECSLMZmdMcErqzoyB6GZMKmgLPqaHogYZ2RoiEZNimyAxJhBR9fLS9AMmaSMkh8fU5gfZX6CrBCsij5EF3ZvpIkgoSVLm4HkoiSZB6SLFGSFCBJayF0fCUhd8MriQgSqtTeMAxOpCReO15xC+4m00qSg4TqSXz9ESURCceGiztSEs+FGpYn8beXswXjtO6G1a16I0qyAZR4kHhp1R+XJ6Gt1SbsCjgqj7C5G+osIKze20osIjwmHJPEdTfZDcko2+RBAm+vgzX7zWhM4rlQzYqOvG1qXA062eKsBa8Nc1RPSU1mqTA6Vk0SQEL7Al8ZNrKdsybtStgrD4OCVkqoCSc+lWMOEm5ILl53I8QkVC1PRUfebhsfuG4Qj6gbdqgkHCS+NjVrO8GUxGdPCySOHCQbXfU25neSQtJjB9bX2Gg1YzGJoCQEydWgi1MS306UxJBTkm2AsCHuE71GGBLxEFhQEoIElCeJEo4NV7alJKwicvVteNq4mIQgoa27ZikmoX5om7obO+ZozTA9lhaY0ySUyN1M2FQgJTHy7mb79SRcIi02TzJsypKYhFw7nyfhwgAXroyaMWwohNsgxUSXGVi/xYbAG8gQ3ZA6JKwJGwH4DrwXajFsLICvVY35gAtzNLLx2MP9yBLHJFa2ixN1FKAln5Q+5iAxYUBfgnFLGZxVEUi2H7jS4iw+4ypKpmUVJH5ugo92D5n3unB13IRhfQGGTRKMXNBife09rLMWACIqYi6mAZL8MCRsNZ7HlgIktviQWNMJCdfSU5xxzUHCQTLargNCHCTCZlcxfLCrO4OkjZREgMTJLdlMSUk4SGir9CglyUGSlqA1MsFH/dI2KokYkmRxyc4gucBtROxrLcN8UHA3NizwMQkFVPGHwDa2SQ+1oGDuxsdDMsK7GwES5V42BBa7m63GJ+IaVzZ07qjFJDX+pbmbbIpJ/HZc84kgmTAzdzNiknLuZvXdzLgbbsz0LvzttRjQngRBsjDVxMcklEjjkmkbABFNX896zayXCesq4HcyJbk6amZ7sVChsvPMUQYIJdP8F86HcyViYJLlTeJB4mmqYgvGRy1KLHuyoG04H7gue82se8O8z4XZSSvc+kKMmmQYudCI1Q/e4jvOxHM03G3bUpKtQhJ3aMaSaXbcdUi8WQAJr+TLPjMbcXKQWKIhufk2gyRZ1jV9kAQ3KsmOIKnKsJJkCyRsmaeZ9XENQ6ITKclNTknSG5Pw/UkoKiZ306+Ldjc0HhfcTXJILBF343NiKeAE525KMGZVZt7dZBMk5G68tHuWE7MTFgwbCkAxyXBbI1Z5JUnsbLZZ47pGbQVwixUd0c5ZnlYVqBBa2M1zUTTBtwEU0dwNFU3TsHneY8OinyChwLWYFR01nzvBYhKau/G1nUu521G8mMQrjkmyBhIHliYtWAo2YZ72bZ4wYMxcgAFdAQacdVi9fSMZH+y+lN0N+S4OkpsiSJQMEmHnrK1BQhsjRSChxFs0JMdzkIjS6xu+bFu8j+3BN2nGUqA5DMmouQCD+kIMuOrDkKQ1JslBcg8WPCcBJgdJkt7yOXfDlwpQyUZSJXnvTrkbLibZqruh1uILQSfYkY9JxO5mzCZH87ljrMaV8iSeljO5mCSJWiRzRaQkyx5r2N1cHddBcDf9zjrcvkGjm+Q/dyUmoZnfBbYvL0XcNGtMW9dHYpIcJOlzadGQOEGQUOBKMQkHyTvJCdnuCr6dBq45SNIHQTIVofvuLUgoLR9wsfoFWnfDfsHY0kWSTNZbPqIkrCY2pyTpmdCLcUkECJ0Hzt1wQ+Cr4/oYd5MxJaGyozX42/To15ZgslmBxRnaV49flOXhil0S1ZMIMQkVxAiQUJ5kdsyMQUMJxiwyNJ07DlPZPuhkT2OiqTItMQk1+aUJvmGTHMtZkCfhILFjxWPGst/FJdNGjRg1FrJkWrflDG6995P0z92wITA1TSNIWk0Y0EjgYZBYQdu40n56ZARAQkjixCTxIKGOAlrpU2mDZDJrITFhhRWluzA7asKYoRijJinuAiQWLND28ilCMscHrncCkmxWkjsKCXU5WuOVxBelJGJIuPrVhEpCboYf3SRzN7FKstVaEiohiJcnyUHiwtWRaCW5nRF3Q45mdY25m8AFMwa0EnibFViYNmMhaMOSl9bacO4mbvDq5eIQgoQNfwkYCnD5IfCQoQSjFJOcPcYa2FBMMtlclfLGSDlIuJHNEg0ixg3M3cx7nJifsGDcWIIRowRdpip88O6b/DZXiUfCKedJ6KXWbq8ySILtEUjmxJD4nHxngXjLPLk5G4JkjhZyCZOBPCRuQwlGLDK4znCQUEwiQCIoyVYKj3KQRCBZGNNjJeACQbIwGQ3JjXffTH9lGoNklYdEpCTzcSAhJdlgpBrkagRI+Co2QUkIElKSHCRxPrt4n2eS22h0Q0rCQeK8+5DMTZswH3Y3cZZ3Cn9MLCRiJRkxYnMlqeXXBtNSicQW7KwN93EValyzMSbhINGF3c1CjLvJiJLQEDi0SvUkIfi7TOjVFsLTpMRygKh1cDtn8ck0ISaJqnXlyxdZ1pUKoUlJ+F0q5sYtGDKWYtQiR3P1URhVe6CTPYkxZzkfk9RjuqsewQ6Cg7uc6Mi5G9o5i1tSMd1RyzZDyrY8yRJ9tuNG0A7u8x47FibMGDPms0Y2HYYKECSb/aQck7AdDW7Ry4bg6TWgS3caXqcKr/qa2a6cC36aTIpUydO8DCsqCisJbYRkxZyPr0zzRyBZmLBjyCjBqEWF1tpjMCifhk7+JIbtKlzqpa3oG3hIGnlI6Hp8C3bWI9idg4RBMkE7pjZhjoq7PEaMGk5h1FiMC/pK3Hj7p5sxknr3RTEkXgZJPryueJBwPjUeJARSDpKdxxwb4j3hi8gfWUxCShIFiSkCieFuQUIbLzIlSR2S+QlbRElqckqyGQTJ7icXnwiSEUFJ7igk5G78zVgmasl9UNqdjzPYLyue6GMxiVW0OEvkbibtcJukoHUxbSJ347apWEwiuJupTnI3nOvJuZuNiiTEgGzuxmPHElMSGgLbsTBpxLgxH6OmElzQVeDG2z++Q+6GIAk0Y5l+oYCdle8npFyAJGDhlh7yC8bZ4z0OXkkUaKs7DqNqN4tJ3BYlP8EngKHBdFfyuCSbYxKChLLd9JnOT1qxTIXQLMlJyTQDJi2FGDNL0KpV4/2f3nFIHJmBxKrExR4azeQgSfjlE8Ujm0EyIUCiKcN7P3vjTitJDpKtnMRMP2bLkJCS/CzDQ+Dw6CbsbrYKiY31J6F1wMKCcfbBTUbczYW6E2F3M2RRxFESQVXi5Es661mDX27zaH4YTHkSfsE4qyd5gNcCb4DEY8ECuRufEwsTBnjMvLvRkLu5Z5WEOh1ZMOe1MEgE/7koQGJWoL3+JAeJ4kkMmGR8Mk0AQwhcE2RcqXFNdy2muuu5JjYddWDJtKYqVnTkNimwNMn57Ex/q+/G60dBwoqg7Zjz04SqAysTJvhMRZg0SdBar8I7b76Ozfph7SiZtn0lSQCJKHCNhkSeBBI+oypeXkFZ1m5Ky5PK1IJS9NkNCbX6ICVxYHnCBL+Zh6RBhXd/8mNwfeAThyZ3BRIqEYirJBmChM0ek7vJWiXhICEluW8gWfBvAklK7mYTJSEVIWXJdkgoHuEhEbubd3/6w3tTSRYplxK0ssYqiwFuzc0S1aDwSjJikodjEr3iKfToSrblbsIxSZZDshx0YI4+X78L1ybN8BoL4DGWwlUjwzs/+WFiP8Pfc1fcTaqQ9G4TEiEmyXZ3sxGSwggkb7yeg4RczRSVFmSxu4lA4uSV5E5C0iMqFWBp+a3lSUhJqB6W8iRid7MwyZUKkLu5UM/lScjd9OpLcLGXhrOCNbLLpBBTBEGs8RshUZ5kqoseI0DCNdZzm+RY8mTPEHh5KuJuaA0OuRsaAnPuJsNK4uszoddQyOpJrvubsDhpA5UBzHu5DQji5gj4uZtZn5nN3VAHRlZVz9o2uTBqUWDUrEBL4yHoyv8YGuXn0GXMx1T/eUx3C1aNQDdZDX8UrnNHf08N/D3V8Peehb/nPII95zHTXY3JZjXcpiKMWk5jxatndbhxf0dRivt+vJ/yJGRCi84l1liPFs81YdnngNciwbhRCtf5Urz9o+9k1t34eo3o2QkkfGVaFCRmOYOkteEEDKrd0MufQo++iFMSVq5Yw0Yr1Ao8SFVq8aybCo4IoPMIsudQEq4Bk01n4DbKMGoqxRIDOU6h9n0OiAC1GBLWfZE+60Az+0J6rBFI3vnRdzMMSV80JEuTtDRiK0piw6zfDK6PK6ck9Mct+1wYYZAo0V5bDJP8EAzSA+jVyHCpW4cpmvmlMgFmDZjpqMd0jLHbmFviWobPdDRiul2LmXY9vI5aDBnUcBtVWMqCZZ6CkgiQLNwNSCjjGqskKUPii4HEIseYSYmOmhIOEtl+9GopLa9lsQcFosHuOsx01uBiZ3Vcm+msRsRo/71GzLTr4HVykAyZyrCYg4S5m3dez5SS3CaFCiEwaEGvsYjFJNe8Lix7qH7VsoWYhFcSH8UwMZCY5RgzK9Fy7jjs5YegkXwe/UYJpnvq4O86z8xHbqT7LKa7z8S1qe4z4OwsprrPs+B1uqMRk84qDJnlcFtk4Z00BHl+II980Xk8JRkzStFULcGb3/tmhtwNLbuJgWTF42KVaSlBIopJBHczapazLVk7Naehlf0pbFUHMGBTYMatQ2BQg8BgI/yDWkwNaTHj1sS3oUZMuxsx5dZg2q3DzKABz7nNmOqqR7+xFL26AqxMb6zoeuBASQCJ1yqBAMkb3/1XBkl6+7iuh4B4SrJdSGKUhCAZNSnQqS+BjnrLqw+hsewZ6KpOQVNVgPqqQtSfKUbjuSJozhUnsCJ2f8P5ImjPF0F3tgjGqkI4zxdhyKLGsEUZ3knjgQNDHHinAAmt8U70s72Mq0hJ+nh3s+Jxpk1JCJIOvRI1kgNw1smw5w8/gYfy8vDRvDx8JC8PH8rLY9fptkSWl5cHsl384+k5T37yd+C/YEJvoxLL3tYHdghM4G8Y3ZBrDzSx0Q2nJDLO3fBKkggQun1bkLCmAljDpQEn+jTF8DrlWGJtJ2wMlCW+Ujvut5TRnTgmoYVZoxS4amTQqQ9DX3UKh578NDvhH8p7CGQPs5O/C3l5iY3gIBPD8tQnfg/+Zj2G9A/26IYBwisKLWlZ9lqx4HeyTlTLATu8liKM6EsYJD/+9wzEJOuhddq1jW0V+nx/M/obS+BxybEUtGDBY8E1UhRamCxaxRcFixiSeDEJD0lnYyn0ZQehP3MMB556nJ3sh/M+BDJSj1278pC3axfy2JEui20XHt6Vx2DKeygPeQ8RTHl46hO/i2CzFkMGGdvSLer3Esv0fX6ZIBEKuVghNMtsuzAXcGIlYIXXXIRhQxFc1VK8/u1/YyKS2NlsQ0miIBkQQ2LGgseMa94UIYmNScKQSKAvO8RD8kQYkg8xUPLwEA/Jrl27EGsETzxInvzk7yKQ9ZDYGCQjhuIoSNK6m+emkKRNSRJDwpSEXAkPCIs9RLDQ7fQYckthhaGY5BM5SFYCNuZuhgVI/v1bycIRdl/KMUlcSJwyLAU5JbnudbHJsy25mzh5knBM0lAKjXI/TOdOYN+fPsKUZFfeQ+z40Yd34SFyI8zt0GXudkFR6Pb/+PM/x+5/6CMPsyPd9vnf/234XI3M3Yj99oPmdsR/24LHHolJ/E5cm7Jh0lTA1gI3Vcvw2jf/6Q5B4ohA8qovBUgSxCQjRgUGzWqYKg+jTnUA+Uf+FL/2S7+E3/r138Zv/LffwH/+hZ8Pn3gBFOFIoHABbR4+9ku/iP2HD2L3gX3Y86efw9mCExi1nMegXopXRgxhv/2gQUJ/jwAKq0bz0qoEJys8ujZtx4QhH2PGEjSdl+E73/jH+wCSODEJ7ZHX2Uju5iA0FUdQXZEPRXERFKVKqOVqKKQl+E//6RfCSkKAiNWErpPtefrzKJaVorC0BNLCfBjKpHAbzmLUrHqgA1cx9FGQkJIQJEYOEme1BN/9xtcZJJmLSYTRzXaVhHaYjIWEMq4mJbq1cujY6OY4zpadQvHJ4yg6XYKi00UoLczHr/3axxgIAhzCkVMSDpLDB/fhVFEBTpw+DXlxAfQqCcatNRgyyHFlzLSxC9N9PqoRwyFcZjulCkoiQCJSku9+IwPuhjJz3B6yq7g02IxeGgI7ZFhmMYkF18jdsIVACabh2RDYClZPQu6GFpjTyaFtX2kWmI1uFOhulMCkPgBt5WE0nimG3ahDdVUtTh3Lh6S4AL/+P/7fKCUR4GBH5nLycGDPHpwqLISiTIWulibYz6oxZj7Pmv3SJsrCB/nAHumzpn66PgtzNbMESdDJYhJqrNdUI8W/ff3v0+9uWPp2jcuTTLub0a3lILkeoMDVgiW/iyVuaGv5uB8+D0mkPwm3AQFBQt14RqxcWr6vsZg1sTFVHYH+XCl625pgaDSi4HQxSkuL8LGP/QqDJNbViCHZ+9QenCwsglShQKvdCnOlHKPGMxg2SjDnNcb//R4kNWFdHug8mDEXsONqwIWVqSZMmCWs+2JznQzf+Luv3GlIzOmDRMNDUnkEunMl6G51Qt9gQP7pIkhKi/Dxj3PuJhkk+54WQeKwwkSQmAkSKQ/Jg1vCyL6gIkjmAzYOkuloSP757/4iB0lYSbIeEl5J7jQkM8MtzN1MOqTg3A2vJLTGY8vuhnYk5+oxw+7GqIDgboyVh6E7W4LuNldYSUpLCrekJHtjlaRCpCQecjfZpCRiSErD7iaDSkIdoUN4cbITPbpSjFtLcc1vwvwkBYMECH34W41JIp2OCJJhiwwjBjl6G4pAlfKGisPQnilG94UmBknB6SKUFBdsCZI9T+/GiYJCSJUKtDptMJUTJGcxbJSxXS2zFZJxcwnbgICLSTLmbjhIXhAgscVAwr6h24TELMOIUY7eRg4SYw6S7QfYUTFJREnuDCSst3wIiSBhfTCoEzG/c5P4yBXnirovivq4MiVJBkm9AcmUhIJY8egmpyRCX10zxIHrHYFkfU1Qki50k7uxSZi7WZw0M3dDULCYhEiOY/FadNJ4PuxuSEmYu9kNQ+Uz0J4t4t2NnockcUxCoLASApZxjXE3FXKMWM6yZRWzk4asxBS9jQAAIABJREFUiknm/A5cDTRhZaoZ46bSsLv5p4yMbkIhhNapfjGEF7w96NJJMWlT4prHghWPFYuTVlCD2SVPYqOt6tmSCtEEHxXHECRjNiVGDDL0NUhgVR+ETr0PhppidLXYYGjU49SJApQUleBjH4sMgR9++GGWlhcSamzmNy8P+/bsxaniYsjKy9DmckCvljJIhi1yzHmzIJnGJynpCzvrdeGKrwVLPhc8NjlG9BK01Mvxt19ezsAQWAyJhyCRYZwg8cZAQqDEM7arlmjdDb+kIh4kFvVB6AmS6mK0N5lg1FAyrQjFhcX4lV+OJNMESMLuhp+72b93H04WF0NSpkCzwwpjpRwj1nNwm2S4OkEr+B7w0U04MWjHrM+JK75WLPmb4LEpwpD83VdW7gNI+LmbzSDparHCpDWjqKAUpcUl+JVf2RySfQRJUREkSgWa7TGQTOYgISW5Y5BMxHM38VSEd0MLvq0pibWcczfGmhK0N5mhrdPg2NGTKDhdiI8lg4Sfu9n91NM4VljIKYndGu1ufFnibpiaiJWE3E1ESf4+c0pC5fIhvOTvR6dWglGrDNd9FixPmLHosWFhknbQ2oK7SRKT9DdI0Vj6FIxVB6E5cxrdbXaYtCacPlEASYkUv/LLvxyeuyF3Q/FIJCbhalr3PL2XKUmJXIaOliboy6UYpsDVJMPlMS1Y45ywJD+463AWPDbe3bRgOdAMj0WOEaMULQ0K/OWr85lyN4khWUoFElHRUZS7McrRU1cCrZRGNwcYJB1NZhaTkLuRlm6EJF6pwO6ndqNYrkChpBT6hjro1BKM2c5jxKLASyOND3TRkXhylSCZ83GB6z0AiQUcJPatKQlfKkCV3VGQGGQY1MhhUR+CpmwPasqOQi0rgKJELlKS2JiEUw9WRc8HrocPHWajmyKZFIUnj6NBXsiUZNyhwtVsGALzKhkLyaRVpCRfvGNKIufdjQAJ724SDIPDQ+A4kIySvzTI0d8og6PqCBpVT6NadQSl+UcgKZSgpEgKpVyFj3/841HuhlMSweVwwDz++BOQl5dDrlZBKS2BsVKBIWMlRqyKKEio1E8o9xN/Ax+Uy/QFpJ5pNLpZDjTBQ5AYOHfzV5mFZA0vBwbQoSnFqFmCV2koO2HCEjWyiZNAEyfVFnxW1qKTFovP0ZoQnvgVXxMmnWoMEyQaOWxlB6FV70V12WEcfPr/w96nnsKRgwfx+COfwM999OeQt+sjyNv14Yjl8ZfpmLcL/+HnP4Jf/MX/gl/8xf+MX/p/fgG7n/h9jDlrWKnArFvPMsLCe7MeKYkmJe/XuEUoOqIyAY8TVyZb8GqwHV6zAmM6CdobFPjK8uXMxCTr6xSTrHKQNJZi2CTBdUqvC5DESccLqflwWp52qSBIqJkMBbk+JxgkLg6SIZ0KNtVBFrhKT/8JPsy7EC6jmoddVCG/68PYRZDkfQh5uz7EHYXLNMLhK+rZc/Ly8Eef+E2MuWpB643nRwxh9SAVeWAhoRQDg8SFq5Mt+OJUJ7wmJUZ1UnQQJIsv3QFINAIk1ihIhG/ohqNQmSaGhO06GQ3JsE4Fg2Q3zOcOQ1XyND5Ei7HyHmbqsevhD2GXsDLvoV3Y9TAPhLCKj91H6fmHkPcQrfjjllV89hO/heGmWgxbFWxLD8HFZCUkeh6SpZczA0koRkncJs7dcEoScR/CSYgCJR4kvJJQjeukSw23XooRvQpm5X7oKw9CJdmLh5kqfAh5H/6PyPvIz3MA7HoIux56GA89/GHkPUQAkbrw9hC5no9g10MfxYce4tbgfPYPfhvupjq4KSaZ0GeZkjjjKslfZAYSWgnM7TB+dXqYzd2MWKR4NUA7NJmx7OVrVoXIOtbPx4NEUBJKGTeVs5hkUCODQcopSVnpXi5IfegjyHv4PyCPAMj7CHblfRQPMfs5dlm4npf3UeSxuERwQbyS/MHvwN1ch36LDFfGdeFYSIBZOEZBfb/GI/R7s8+a3A03dzPracX1YDsCNjXGSEnqFfiz+RczoSTcDDCwhtmLI+jWy9hmz18M8pD4HJib5NQkrp+PAwk9bpm6FfubGSS0OGvYUAZL2QGYzx5GhWQPt2STdRHglm7SwvEP530UH877SIxxtwndB2ipJ7WdoLjkD3//f8LdXItBmxJXJ6Ir0x44QDZA0gSC5FrgAoL2cozpZWivV+CLcy/cn5AMGxSsPYRJdQC280cgO/lZFrjSyaYAVjDqVSJcjnckQKIg+T+/gfHWBgwYpFnUxEZQkviQfOmOQKKTYcQiw7aUxMeNbuIpyYC2DHrlPja6qVXtw6f+18fxyG/+Dzz6W/8dj/3Wr+Lx3/44Hv9fvxrffufjeOy3fxWP/N5/xSO/+9/x6O/8Oj71m/8Np576LEbsNaBmv/OjZiz6H9xUPHOZcdxNREmkTEkyBsk6QiB3c/XiCLrI3VjluE6bRtOGgFt1N35uCMx2GKf2nLQmxN8Eb3MFqycZMqphVh6AsWw/HNUncdlzAa94e/CKtwOveC/gsrcFr3ibExrdf5k9rh2XvR244u3EVLcRQyY1Wwu8OB4JsB+YGCQ2fuIhoQ7cc7R5tLcNK/42BKxqjBtk6GxQ4fqVS5lxNyEBkkscJGM2OVa8Fix6rVuHRLTDOMUDBAmNbnzNlRjWSzFkUMAg2wu7+jCs6kOsTXiguw6BLurCSK3CaYsSavwb34KdNQh2cfdNsXaetZh0VXA7ZxnkmB2xZIWSsC14A7TfjQtzvjYs+9vgN6swYZSjS1OG5ZemMwNJWEl4SEbtcqz4aFvRNEMi38dBUv4M6+gc7G4Amb+btqTndsWaFu+YJboc5Pu9sg0IuupwsbMek8KmSATJaLZB0oRZH6ckUZC8fN9DwitJDpLwcD0l18iq5W1skweaBSYlIXfjEyvJyzOZUZIQy5Osspikk2IS3t2QkpDroAkl4Y/ZMLQUhsBbcDdGpiTPwJqDJPx5Cp/rlo48JDT9Me9vwpzvApZ9QkwiR5e2DItfmEo/JOshQoSbu7lycRidOilGbDKs0GJxrxVzk5bwH7QBkPDYXbSkwk8TghtjErdRCZNiP+zqHCRbAiI2aOU/60W/nW0ZQ33l5/ztrDXpjLOK5Um6dWrMPee7u5DE/eO2qCQCJNayQzkliQfAVm5jShIPkspMQ7IWrSQ0z5JASbYECZUwJlESW05Jwsoc9/NMBgvvbuZ9FsRXkjLMPefPhJLQzA3nbigt36nlIFn0WcHqRETuJu4fxY/dqT8J+Ura2ZPmGMJD4BZ+CGxUwKTYB5v6EKtQo/1q2Oimqx4BGt100S5atHl0nN08aS+c3OiGWxjnIyWhvW6aMOdvxbKvGdOOCozp5ejWqjH7vJdBQh1n1tfXmcVSk3r3xfV1fBCixVlrWH52El0NUrjtclwN2nDVb8csP28TFxDeTxIYtDiLdhhfDDjCtRyUJwm2ncWQXoYBvQQmxV6YKeuq3IsZOvEsT1KLqX5+p/EcJJuoDL97lpfiERdoFd+1oANBNsFXhq7GSly+OM5BwjpYhRCvd9rOILk0ie4GWRiS2Z1Awm+vFmw7AzdBYhBBotqHGdohS4CkLwdJwi9hlPvhFu0vMEicbJfxKEg0lXhFBAkpSZohWcUygySiJOmCZEgvjVaSdEHi4jZqpMZ6WZFM49t/bBUSAuT+giRKScjd5JRka+ohnrTcqCQrYncToyQZgCSElWc96NUq4LYrWEyyEyWhBBx1bSR3Q4XQQ0YZjPI9sJYdgF6+mwWp5G6CNHfTU4upbn57+S0GrjOddfA1n8GgQcq6L86NWR/8uZs4SkKQTDvLMapToaOhHF8IuGPj1A3XdxCTpA8S+obMe6MhoZMZDQkXuHKQ1IH2/KV5ma2MbthjOmrhzUECBolDDMnwBihib8hBEhXoiaX6Qbgc391M31lIJsPuZnaHQ2DB3QRE7sZA7kYluBuxkpC72bqS0B7CtA19disJNwReCToxJUBSr8ZLwQwoCXWDDrFk2hquvRxkO1xRg15WKU8tsDz0DdyssZ4dc1R0RGt1AtxiLqHT0XT7eVZ0RNVjlCOxUY8S+W4EO2rYEJg2gw701nM7dG7ibgKs1qSO5ViyNyaxY46a2Pi5Tg7LAQtmXGUY0yvRp6/A1FhnrHfZcD1ldxMFyWUOkmEBEloueY9AQurBIOkiSGpBkGSfktAXliBxYNZvxazfguWgCTMuqpZXoE9fienxjg1QxN6QNkgWJsxge++lDAmfFeR7piVSkilSkq5aZltREgYJVaYxSGiz6WyFxMFDQkpCkJjvHiSLYUgoWNqCu6G5G+Zu4kMyJLgb2qlCvhsMEjYErkVwC+4mGpJsVpI4kDjJ3fBKMpEhd7PGVvCFcO2VKVxokGDEpsT8uInt5LnAGv1yMhc3+SNM8NEyT9bEhlsLTENgKoSe6aiGWyfFsJkm+PayXcb1st3wXziPAClJdx183bVgwWiSmCQMSWc2xyRcF8x5nzPsbpb8Rlxq5ib4evUVCAy3Mu9C2wKnb4KPdvMUQdJWX4pROwfJCgGQTEXCE3x8VwG23w1XtU6jm1hIKE9CW9FvhKQGU0kAIRcThiTbYxKKE/3xIJGhV1cBfxgSbt4mPWn5WEgaMghJQiVJFZIsjklEkFz101YzIiWJgoRTksxAkg4l8TrCnY7E7mYnSkL1JJHRTZZDwtwNF7gKkIzqZCB3E1ESsMm9NEOyjldnL6K9UYpRqxILQkyyRXcT1ezX58T8JOduLnbWsHU3I1bqKrCPzd3opE/D13qWz5PUwb9ZTNLJuRsaDbH1OeRyaO6m5SybExo2yXF1JAtW8LFsMg0MaJNGWqBlYTt7XmqqxLhOgV6dEj63PSomSTskX5q7hHYNVcuLAtctQULdAM2sMo2qpmiZZxiSLoKEVgWqYFHth1W1H1rpU/C2nEGwp56f4Ntk7obiFRoJkXXUsPhkAyTDpiyY4BMGEE6WUOMgseGSqwoTehV6tXL43BaqSQMFrvSTdki+yEMijG62HriK+rgKzX4FJemIheQAD8nZbUPCciWxSjKcRUriEytJLCTW9ENCGVdudLMODhKqcU11dCOCZFMlyUESN5Ww5YlJLm8VcTd3ABIaSwtDYIKkQyPbPiRxmv1STEJ5knG7GiaKSVQHoJM9zdzNVE89y5UEeriYI2GpQIy7yXYloUaHYUh8Nlx0VrGYpE+ngGfQzCkJ523SUwhNryWGpFMr3xEk4ZhElCcZ0kkw4SgP15Po5Bwk070NEUiS5UlykEQVSM97IpCs+O246KTAVY5+vRIT/SYGCc9I3EPKczdphSROR2huCJyDZGcuhgLWiNGkq6Akdx2S5S1nXEWjGyFwFSmJO1ZJeHeTU5LIiRdDsNnluwMJv+6GhsCcu1GwuZsVn3PLaXkhT8LtMO5kq/goLX+xqwax7oYm+DzNVaCYhC2r2GqepJvrY0IpevEQ2G2U4Uo2DIHZl5byI5yS0OK56z47ZkTuxpcpd7O6dpMtzvrz+WfRQTGJVY6FcSPbgn47czcUWFGu5FqgGc/11DNIKHA1yHazZJpBsQcTTZUIdPMTfJ01KVemCZBQ7Swt2bg8ZGDvudm38L6+n4fkSpCGwA4s+6z4M58DU02VGDUo0GdQYqqHYhLqXJX4Z1sxyWooAgkpCRUdze8AEtYRekuQcAky304hMWQ3JNPNVRgxKBkkQR4SIZkWD5UcJKIA775WjXh/RwIlmWk5gzGjEr0GJQLdxgwpCe9uvjz/HHM3pCQ0d8NiElrJzn5hrlJ7wwdPv7g/plQg1t1oJRizq7khsOoABHfD0uxUTxJWkq0vGI9yN1muJBdbzmDUwEHizwQklEy7ufoB24DgL5dfZBN8Q2YZlj20i6edzcFsXpmWGJLnexowqCnFiEXJ5m5o/oYWjI87y1kcQqD4u2sw3Z1aV4EcJJGYhNyNWytDr0EBX6cewK14XiZ8W8ruhiC5FQOJ2yLDMtvqNU2QaONBUpGDJJ5LSXZbAndzqfUshvVy9OgV8HToANwGP78XBkN8YVuQbFCSHCRRyasNLjbZiczkfQkgea6tGtR1u0cnw8QFDcD2eRZjEX15m5CQPK0h7G7CkNh4d+NgeY+4HxaLSWyYC1DTG2r4RvUO3H4z1Fs+sbvJKUnczzMZZHEg+ZLPjhfaazBiVKJbJ2dt1LGebndDjfVCrC8O/vraZXRoFRgxy9gOFYteE+a95nBTmrh/FIOEkjsOLAZcmGf779lZEo4geaFfg4HGQtA2a1b1PtjK90GveApDVhlmeilPUg1f93lMUVySZP4mttNRLibhYpIv+Rx4vr2ag0Qrw1hbA9IPyXoIa2s8JCsEiRwUuC5NmrHoNWPeR5CQkgijnJgjg4SygM5NIFFykKj3iyChPEkND8k2ugq0nGVdBYayeHQTC8l4xiARlISHxJ2D5L6JSe4cJHdCSay8u+GVxG2TY6aXV5Iucjc5JYnrzsUxStyYJNrdZEZJKCZh46V1/M21K+jQUFp+e+6GNm+kmIQKdec9drYpEsUkg5oijNmUcFQehKVsLwyKpzBokWKKIOmqRqCXFmflYpLtQvJcOy2Ak6NXr8B4Sz1Ct29ED2dirqU+ukkXJH6aMeYhoWp5giTABa4EyahVEYbEqMxBsikQYgURLsdREprg2wgJJUcT/9xdSGhkQ0qyBUiGckqSetyzFUhaSUkyCskrMe5GGAJvlifhRje0/HArkAjuZrqX9rvh3A23l83W2mGJ60lYqUA2jW78dlCpwLw/egjs1svRy+dJQiyDnlYloUJobuesr/7ZLDfBZ+LzJB7aGIkb8sbdfIBkkOZ3/A7MB1zM3RAoVDlF7oY2j36hvxFDuhK2lsdeeRBm9V42BB60yhHsqYG/m4MkkItJNlcWdi64oqMFjx3LHguu+ex49sJ5DFCvXGMZRpw1WLv1fmJCAGzD3UTahn/tz2dZZRoNgan1xCJ1UKTqNNZZINEsMEHixAIPCQFDf8A89Zf3uRgkg/pSlkyzV3GQ6ChwtckR6Klh5u+tRQ6SmPyTEIfEOVIh9MKkHcuTBIkNF9vPo58gMavhdlRj7dZ7mYeEkmlRkCRbxceUJAIJFegKkKyIIBmxKpCDZOsgJAts5yk2IUh4JbkkhsRVjbXbdwASmgXeLiScu6GNlHgl6WvEoC6JknRXI6ckqcETrST2aCVx1WDtdprdDdczjdth/GtfnkOXToEhkwQLEyYsULnAZsXQMUrCglePnaXxqRD6xX4NhvQSLiYRuZsBqyzsbgJ923A3HbXhBeNDBhkuD+of/BpX3vUQJMyd8+7m2c4a9OukzN0M2M/h9gfvptfdECTCNvQCJIPGUlaZtiNIfE5cI0gGNBgyREOilT8JBkl3DYI0yddHo5ytJ9NoBR+16BS6ClC36ZezCZIod2PDsx21DJJBixr9trO4deOdexsSah9Jroaq7LcKSSAHyeYjG1EA+/+z9x7gkWTV3ffAYmNeB4xtXhvjwOfPfm3ACYMBG9vATpA0Oe1E5SxNUs7q3K1W7KTuVk4dlCZnZU3Y2QQ2xgaMbfCyS/TCa9IyQeH/Pv9bXd2lHqlnRmrNzoLmec5UdXVQVd1fnXPuueeeGzQ3wifR45T1cUNSlYGoahKam4Am0R/bJrrA4ZpkDZKV+CTUJJK5WVVNIs0FnsEXXhwXE8ZbVSkY61JhojfQBX5g74ZxEiksP86YicInudBSibbKJHToOHazE5rsLahK34RmdQoGHMXw0+QITfKIA3yWYvgCRWyYKvAzYW4CEVfm7oi4lYhFGXHKWgxndTrc6hy4V8PcMMd1ZpYrZ93Dl16aFNUX29QpGO2swmSf8SEcV2bLGzDqp4lh0TepFBa7wdO+Glxqr0ZrJcduslBzbI9IhuYMvubKJHCap89aKFWEFiuMP1rE9WcSEp8BV/1mjIjhDyOmfSacspfCVZ0BlyoHLYYC3H39B9H1SQQkYponIZkQkLB3MyIgMTwkJEaM+lmpkcDIkPACanCprUoByW4FJMlBSEQd1whLq9FRXSwz7WcbEpooPogBSKqeEEgWDc1TBfpkSJSaZGlIKoUmWYMkUsBs0ffEvZY1SRgkj02TfGZSmnejoiapxhQTmkVYXjohnvh9oMiQ+AKALKFJOrQ0NyFN4giYGxb8fZiy4WuahONkkmmXzM1CSJxV6XCr6JPk487qmZsZfOkzk2Lsxi0gqcJ0ABIW7iUgnAS+JCRc1ckvjU7y8xzkU5qbdm0mTEd3CXPDGXz2ikQMOkpEZQE/t8vITFszNxxElcxNc0UaWjS5cGpO4Cc/+p/V8klWFxLO4FuDhE//CmQxTeI14YyjDM7K9CAkt6MOydw8ZuY4T0OChNnyIU0i9W7WNEmoYemci/QJDtsrRDjtNMcBETDI7yuOi+8vF5RwSDySJjnbXC56N25NLprVxxF9SNgFnuMK47P4t89Mi3ySFtncsJIiUxKXZW4CXeBA72ZVNUnV44mTyICM8Z6wkAwddqZGBMCZlKHgNgCCDA3fY0iBx5cNCiHxckEkaU1g7tMFOOusgItxEkKiyo2+uaHxmpll0tEcvvrPz8JayZU3k0WcZFrULtcvC5IJjx5TXhMutlairSoRXfpsyXHN3ApN9tbo+CT1eaIidEtlKi64K1d1gE8GYYqDaz4jLvcbcXFAkqt+SauwfNg0Y0uEgRUS/dJnOWfpWp8RN3uM4PeXDYmAUeogSFmAnBBXi1POcjRXp6FVmyVqlLz+/dei65MISGakzLSvfE6CxK1KwkhnJUKQSCtPPIrjGgkSdbQhqXpMkPRJjU0YqEmu+I240m/EpX4JGoLD92RIRvxyaEA6dq3XCGqUlUFC8AiKSYQeJnx1AhKngCQTTlUmXv/Bf69BIue4+mRN8rgg8UiagNriWq9BaA2mbxIGgnJhUIJACcmIX0rvJBiyCF9mBX7JgyF5LJokGSMda5pE9itkJ5SNLJkWA673GnGrx4hnuw241mMQtVyYlUdoKMJ3CGgSgkKQ+F36MD8VkLSokzHaURU9c1OdKIrY1J7YK1bP0mZvhaX0sIiRsAKj1/bg9W4WDaY9Rk3Chr3q0+O0T4PLHKdiY3do8IKvDs/3mfGcx4znvLUYZyZ7PxctooPJMS1+j/uSaaKZiiYkk746nGwuA81NiyYT9ooU/PC733wTmpvqRLRrMqGExFoaH4LE/maARGrwC8MmnBrQ4eyQAVfO1uPiSTPGTtdjZNiMC14tzg8YcN6vw+iQOQgLQRGQUJOsOiSpa5CwPMUb4ZPw6WfK4MU+Lc6fMsN33gRt11HkWOOR1rAfec4U1PaX4OQZE04PERR9wLwYhJPLHhFNjnBaFV3kBSbtYfwUnofCcb1fk6wWJLNSjmuod5MsRoGnvVy+68FdYBE3YPEaEZZnZppeTMeQu8CtVUliocYFmqRMoUlWam4eUxd4klNX+2sx1K/BsYZDiDXE4pP1m/G3jbH4u6YtYt9gz8Sp0yacHzbh6iDjGZyKQvMk+SnCZ3kYGJb6zKKQlIbMTeUqQCISoecJyRy++nl2gTNEJtlIexWuMWchbLzmvrEbeu3CWZOmdzJtUZqnw60RV7u1cKuS0anNgvnEXmgzt0CdtQX1hfsx4CiVKkI7HryaZySfhDmuF1yrGycRT3yvHuOD9Si1pmN9/TZ81LEBH7V9AutdT+MjlvX4M/t27NLFoq7nOE6e0uPqgEn4JCOc9upjN1hKzCI0j6xBZGjCIJlgoaCWSrhU6XCp0tBYkoAfvPYN4ZMwDSQqiyJJ2fKMuM7gq5+/GRzguyogqcGEryY4qLcYINLFSkt+sZqAEJHJthQkWwUkdQX7MBiE5AErZy2VTxJwXB8LJJxsNmCGz1uO/fqt+NumjfhY+9M4dGEP0s/vxcGTB/AxRyw21m5CsnkX/Ke1uDJgwhi1SBASznKMsMayDEKk7SNAQkCiDMnsAyFZmn4+GZImUW4X1yRvVkiMGBkyorYjA1t0n8RHrP+AzWd3Iv7SNqSf34yjo4exvXc7Plb3acRpNqB9qFIE2rj62FRvILXTUxN5Ie5IcMjvRYQk/Y3XJCuG5PgeaDMlSGhu3kyahJHSy4N6GLuzsaNmEz5uXY+Nw9uw/8oOxF/cjNQr+/Dptqfx4eaN+LRuPXrO63DJo8X1XgOu9ZowwXC+9/FCElVNIiVCz+Kr//JswNwkYzFzs1JIavOegSZjc9AnWT4kRRi2lQTn3bCywKr7JPSvBo1oP6nCQd0ubKjfjk+0xWH7+Wewf/wAdpzfhw+71gvfZK91N/wXDBjx6nGz14DrPasLyRl3pYiRCJ+kOAH/o/BJ6JeE/1vehHExCkzHVfZJklYFkrq8Z0QwTXZcVwLJSVvpQkhWeYBPBNO8elw834iKhizs1uzB+rrt+Jh9Az7i+hQ+4tiAv7ZuwUbTRmh8J3DmnAmjvToRjZ2Wzc0qaRJCwsE9QtJQFIIkHA759fIgCSxDvwZJaIj/Pq3J2Ea/AVcH9BjyGVHVmIMD+j3YUheLjXWfxiZTLLbotkLdnolTF80YGTSI9M8p9ogCjuvEKvkkCyBRaBIZivDtyiGpzABHgR/V3Mjd3kiO65tZk9AJnxSpE+UYGzTg9KAJ9R15KGw+hBP2Z6Bty0LngBbnThswOsCxHB2ui/wSjtswTM9wPH0SgrjSLjADalK3mqPASkgaixPxP9EOy8+LJV+leTcv/+stNJalihl8Dw+JNDmccPBGhm+vdGlEnIRJR3X5+8Qq41yAYGWOaxGGrSXgKHCbOh0tVak476pY3XwSQuLXY7S3CtMDTAEw4SpD8acMuHTaiKvDJowM1EhjN71c+ZugSDEkxkgo0pjNCgAhYCI7jdpJit5O+sw421IBtyodLep0NBQcxPe+/apQHov5I3xjmZqEkNzF177wHBpKkpcBiQlW8iblAAAgAElEQVSTIp4iQcIZfDIsAhK1tABBff4+EUxbOSTS8mr+hnwJkspUnHeWryok1ADSQxDYBiAQGWcEKKA15Iiq1IgBIAIjwyvSIIou8IRPJwHHc/DV4FxLOdxVyWjTZKA+fz+++62vCUgWi5FEDxL1o/RuqElCkBCQh4GkLv+ZFXeBg5BQkzhXV5Pc56PIjfa4t4RRhkSkLxKSCrirU4KQfO9Jh4Qa5D5IVKusSdYgebIhkUL1gXGbgE8SDkmLOkXkkzQU7Je6wJmbwbB8aDXPB6wwfl9YXoqTUJO0azLQUpnyM65JygOQpKM+/wBe+8Z/Bc3NYn5JdHySRzA3hETKfZVsNW3kaC8nc0mOLH2SVk0AksIDUKXFiZWzzHl70R9Y8tUnlnJderL4/XOBi3DSJjmudIhZbutn29woICk4gO+8+p8CktnZWVDC/72BkEhQPBCSdAmS2ry9QU2yckh+1jWJwidZg6RYrIkzYAvXJGuQBB3XxwaJStG78YZSBRbz8OX0ATmYFq5JmE/SojQ36XFQZ26G+cQekUvSbyvCcjQJx27ok9DcuCuTce4xdIEXu/7HfmzR3k3I3DQUHMC3X/mPoE+yauaGlY6utlXimq9G5Icw8zvSzSAo4d1gwsK4Ap3YoONKn4SQZG2B8egu+FhRgJA4uLz8o/kkMiQsjuOqSMK55jJM+ulARwit/zS8tyQkqWjT0HHdj2989d8EJHRaVw0SNmoQEjqgD4BEpOcFYiVyFzgSJCpCcmyXACR6kJSvQaLJQN2bHpKC/UKTrEGyAm0XUZNIEdfV1SRffF6E5VlVIKhJApOUI6vxkLmJpEkaleZmTZMszzQuCgl7NzQ3kib5etTNjagqII3dvPqlFwQkzqpEXO2oxBRnz4uYx4PID43VyPGRxcyNpfgQqtNioc3etmZulusfLQLJhbYquFUBSPL24atf/vwCnyR8DOfR4yRKSL74AhpKk+GsSloWJARkDZIHPVArfP8hIPkvBSQzMzMIj7quDJKgJokeJIy+yr2bJ12TiIlTizzh8rA8e2vyvjC/8ujugm1gOF+kCQTSA9iwQgJzhRf5G5HNuQKsR4SEvZuVQyIqHUnm5pXHDMl9XeAI3eCF825CYzehLvDKejdy44eDEjpOk8pG5jA9fTADJgLrJUuf4dQJqTGl3iCHJuQJWYQr8L4M1HJBeQhIXv532dxwzWdOq1iY5/romkQkHc0A87dBSETSUVWSqCrwqD5JuLmhFuHTx/X2mBxkLTksxm5YWI9dYEISDKbZpWiqWFyACwyEyUJIpHySgaZCsGCfFCdZOSQsGSE3tPxkj7Pak0eHaQ8XIKrGDW85pvuqcHO4AaPeRtw814kb59pw81wLxgcbcL5XhfEhI8YHtBjzVGHCp8aYVycmaV3x12BUxJ4ix53kv73odhFILnZUw12VilZ1mkg6+uLnnhWT7WZm72BWFHKWihTJYzhRgcQVJZ9kSUgyJUhEeU454roMSPqbCkXENVqQyFpD2TiSiWFZMAKvwXhvNV4878DYgA1OYxFSdm/Eng0fQ+a+DbDrj+HWFTdGh+pxuU+N6yfNmPBpQNBYfuIKp8EKbbTKkPyzBMns3G3MzLIeHiEJaZM1SJarxvk9mgI5cBjwP2RfQpgLfy2evdABdV4Sfu/XfwlPrVuHdevW4a2BLV//8Xt/Ga31+XhppAtnO6sw5tFh3K/BqE+Dq/26ACQKH+NRz/dhNMmqQvLF50XZcNcyu8CLmRuG5ZcyNyvWJI0FUdMkBESsRMpG8Ogx7tMJM0NopCJ6ZkyddiM7ca8A4+1PvQVvfctbse4tb8Nb3vo2cewt69bhF9atw9vWrUNLbQmmTzmkwns+Lcb61bjar8KYVy/lqQoglwHLI0AyE01NMjMvJUK/+u+fERPGXdVJuNJaIep/MU4y5pGK/SrV8MJ9PoGhaZ5U0XxNQKb8ZnC5Ng7EST5JrBi70eduD4XlWZ9kGeaGCyNJidApOOMoXVlYXlQnkqoaEpgprxYTfVqM9mkxNdSI8WEbDKUZAoa3PfUUnvq5n8f7/vBPsHHzLsRs2Y3167fgd3/n/xdahZrlvb/68zjVacb4UBOuenUY69fgqr8Kox6NgGTR+nMPo1UeApIv/NNNYV7m5uiTRMnc3A9JsgKSQCmJiBewEBIZGCUkzCB70iHhNEzJsWSBPC2u+fS42qPBiK8eF/st+MP3vlNAsm7dW/CRj/0Ndu47iB17D2LX3oN4Zt9h7N1zEB/4wF8EPrMOz8R8DKMDFowwidpPs6PGaN/jhOTuY4TkETXJYpB0aJ58TUJAKOzeEpKpPjqdRkyecqBenRts/D/6wz/A4cTD2LprB3bs2YVn9u7Dnh17sG/nXuzZl4jf/p3fB03P7/7qL+JiXyMmBhsxQo3EKgO8l2IOD5O0luHAPpImiSokVEn38OqXX4KlMgOuaqUmCRWxWWhilPY0pElEbyDc3OjSIEPCsDxTBfRHdjxx5kaCxCx6I9PsnXi1uNqjw63LnYjf87RwVH/urevw9Kc+gV27t2LPM9uwdVsMdu3agv07d2Dv1m3YtT8Bf/5XHxVA0T/paqzA5KAFI31GTA3UiqmfvI+raW6++DnZ3EQTEjAP8h6+/pV/QqOAJAmXW8tFYVpqBcnHiEQ9g0uSHyJrEfk1x3CYdNSmSoe9LCGYT6LJ2oJ+W7FIYfSLIjaPtnIW/ZEha7HwSbhyVjR8knBIbvh1GOnV49lLHdiz5eOi4d/21qewccMG7Nq9HTt3bMaunVuwa+d27N6+G7u3P4Pd+5Lw1x//Wzz11nUCKpv+CEYG6zAyaMQlvwbjfgbkpAdsNTRJY+EhfO75SRESmbn7Oua4lpEoUiR1gfn/srrAMzIkX/0nNFZlwFmdKEFCtSjySeiURoJESi6SgZIH97gVkKhTROVmR3ki1IGkI2anhSBh0lHhfQE0ZUBNGUzjcQbSZEhYVeC0rWTFjmsQEtZs71Nj2qvBaJ9BQJKVsEVA8pannsLf/cPfYN+BnYjbsgG792zFzp3bsGP7LuzcsQ+79ifijz/wZ3jbW9bhF59ahy5rCUaGanDJr8VFbxXG+yVIlgWI6KbfP+9GGUwTkNwalyC5/TrmCYkoCCBBwojJmweSBZrk0SEZDIfEHi1ImI1nxBR7JN3VmO43Y2ygCW1NpaJry7jIb/3ur2PPwa3YtS8OO57ZjM3bN2H7rm3YtWc3tu0+hF9+57tFL+f9v/+buNJvEQX2LnvUGPGpMO6TfJKlTbfSjC+y/wCfREDyXACSOwFIFJrkTQGJnL5Iv6TfJq93EwVIoqBJxj1hvRuvLgBJPSZPu/ChD/x20Hn9sw+/H7v2b8XBpP3YuX8n9hzaix179+C3f+ePwN4PYSrNjsf0KTdGRPdah0m/BmPsWgfMzbJAeShIJiRN8lggYTF94e0/yNyEfBLZF+GWIpsb2SdRZ2yGJmsrOH7jtxYFCusRkqJHMjdKTSJ8EvvK4yQMpkmFAaXxmimG03vUmOivw7VTdlj1J/COd/x8EJR3vvNX8Kd//mf45PpP488/9GH83DvegacCgbUPvu+9mBjuwES/RdJMovqiBmMe7fKSjeQQxGKQtFfBVcVpnuloLDyIz94cEZDM3f0JZu7dxvyToUlCvRvZL+GWcZIgJOp02ErjRVUBTdY2cEVPn6VQ9HD6HzERWvgq4eYmGppE2PzAyK0YY5GCiAzJM+p67WwrdBWl+I1f+kUBihyWp9aQhdHWD/3R7+FMlwVTAw6MecyiJ8PejAjRL6fbKwOyhE/CpCNnpTRhvLHgIF66fkVAMn/3J7h35ydPJiTKHs5jg2SlPkkAENkEBAf7hEZkGQlGnmtw46wH40M9SNy6Cb//q78k4iEyIO/+lZ/H8fiteOmqF9eHmzHeZxLrBU34CJlBlA+PRtnw8AnjEiTShHEJkquPEZKHWRdYUP5ToEmUT6tin72QSa9OCq4Fxl0m++pw63QrpgZdGHKbcN7TgPPeBly/2opbJ+240qnBNb8Z17x6TPtZS0SHyz4dLvsDxX+j7JNEhuT11dMkF92lYHlJ4VsEQVjE2w52jeV4SiiFkd/l2A3jJO3qDGFuZJ+E5sZrKVT4JPfnkETqAt/vk6ywd6MAQ9Ym3NLUcMCPoEz0aTDWUy20w/XBekx4zZgabBBhd2ltG36W4z6sl6YWYf0J9mbo24gVr6TlcaXR5sXu5UMcY5sESk/w3Ca9XKBbBVdVMjo0GbAUHsILU5ckTXLvNmbv3cP83BxYX48ZanOYj04XmAN8F5wluBYsIxEpRhLSIvRBaGpoYuR9QtKqSRURV/okIk6SuQXVGbHwNhVIC0gzmBYhK42whMdJlJCIOEk0zM2SoCxMW6R2EXEO+heyj0HtIPZlnybwgInjgcZXfn6Jv6UEdNF9UcdVKmJDSKY8NbjaqRGT5jvVGbAXHMZzY+fEAN/8vTsAs9JmpQ1hmcXsakDyILqXhkQe4FsACUt0rgYkK3VcH7nReN0BSETjB/JYFb8jstxk06KERfGZRUGI9P7DQDJ+RiQa3Q/JfPQh4ZqzkkbgDVkKlqUhoVa5T5P81ECy1P1Y5eNPFCSuEjEXeEx+EoK+R/hNWBoS2SdZSpN4guZmZXGS1TY3Sz8g4ffiMbxeApLWqhR0qtPhKIzHrTFJk8zdu4P5WaW5oSaZiY65cVcn46KrFNcZSAsmEy2lTZaGJLK5iUNfU37AJ1mD5KFBXASSkS4t2lVp6FSlw1mSiGdHTwlzM3vnJ5i7NydSXOmaiEqbTxokkTWJEpIoOK6P3Sd5DFpjMRO/FCTVIUhujpwUkMzdu70IJFFyXFdVk4j6JFtQnR6r0CQPC4kinSDaEdfFGuRJPPYQkNy4Oiz1bmbuYO7erMgUkDRJ1Ho36QiHJPIaLUubm6Am0aaKAniiCxx0XAOaxFEKn9wFXqobbGUXuCiQByuN8dyXKrCKXeCHNgWPA6qHgOT6FULCRePvCk0yNzsfipPMR0WTpMOtThFxkus+szS3d0mnlSp3aUjk3k2XKUtAwqQjbdZWaHK2iuJ69En67cXwc+wmUiI04bETkhIMciDQIuWTnLKViN/lokgrTjp6HA0cjb8RCRJ1OtzFSZg86ychmJ+9JxZFYiYJUwSkf3PRcFxXARJjGCTZy4Okn5DYaJqKRNLRGiRSME04rvRJCElJEqbO+YKQcJrnGiSaDJH1tqZJHhsknxPpi1E3N9HUJDQ3XPa1qRBrmmQ5mmSZPsk9zGAed8HJWQ2VqWJAjmM3UfNJloCkt/54IBH6EX2SNUhEIpM8dhNubkaGu6W5v7P3MDMTbm5WBMk9vPofTzYkaz6JND40phgF5gBfOCSjwz0RIFmm4yppkvshuabo3chJOGLQaoGXzlFPKT1AHvkNHwXuipImeVRIlOd8/3m/QcGwBfduGefwoN5NSRJWEZK7kiapSFOYmxppSoU8xB3YUs3Jw+ViyFxcuDQYyNiIDAlru071myFBIs270WZvhUbu3TQch1xfntMr6Gsoc0iC+4EusAxJsAtsLxXF5Jg/e9bBOq7yylTLuPkrbbzAPZjkItEKYaEbpTCNcaUy4Zfq+fN3pn1mjHbr0Fadig6V1LsZPdkbfU0yq5gwXl+ehjZ1Bs47SvDCQD2me/S44TPjhr8WN3wB4X6YXPfXCh/muo9baf9Gfx0mew3wGLPRoUoBl6PXpG2CLisO1Rmb0FWThQF7Aby2PAw+IE7CYBpjKoyTDBCopkIMW4rQq8tBa1kyzlpLMc2FEHv0mOyhQ2fCdJ8kU71GTPQaMP4AGevRixvOm76YjHRrcaVLHUE0uNxRjssdFUG50lkJpVxur8LldlUEqcbF1kpcbKvEpbZKsX/eXY6gtJSL6tcXW6tw0VmJi64qnLWXoUeXjW5tJpylibgy2CVCIhzgm5ufj0IXeH4e98TM87t45d8/A4vqCFzVGfCYcnG6KR+nmwpwxlqMU5bIctpaAlnOWEtw1lYqXp9qKkKXJgNd6jS0VSZDlxEHffYWaLLi0Fubi0F7IQYdRRiyl0TMmJeSjgI9G1ug0lFjPjrUmWitSEavPhfMmueIMCsNdGozRSUDVjPgZHUea32AtKjSEFHUKXBrkiNKO7PwFNKmTkKbOjkoLdVJaKlOhrTlfrgko1WVGhJxTSloqZYlDe7yZLRXZ6C1kt3eLLRXpaO1MlWIvfAwLg92BiFhNlp04iRznAt8F1/9t8/AUJIBe1UW2rSZaOOJlSegTcW5vBniZvOGh4t4T52OdoXwOy1VKVLDVaWgW88a8IlCi6gzY6HOiEG3ORv91nycdpdh8AGQMHNNaJDAlrP3+llbXpMJN/+OihowXZwnwaB06iTh+fIcCQk/s5SI9wnUEtKqSUeLNjWiMC1C/n2Wp2rXZgSF58TzbFFxncOlhH8/e4G0qjLRqs5CqzoTLaosdPJ9VQbclWloU7EcWCq6dblwlqfAUnAQl4dWBZJZzM3exY+//y20NGpQW5YJW2U6XIziaTPQUp0GdzXHdNLREtjKr5c61qrOCH6H+80VSbAUHxRhefolxmM74W3Ig7+pAMOOyFpkgW/CKZ6y/2ItQm/NUfH0t2sy0abJQoc2W9xMV1XonF1VqXBWStJclYqlxFGZAntFcgRJhLUiYWmpTICtLAm2suSgWEuToBRbWSJs5UmLip3Hy5JhKUlZINbSVCiluSINtpIkNBYehq00GfayFHTpj6Ih/xDMx/bhiugCAyKf5D5NsowuMEd+ZkSirKSUfvTdV/CT734V3/ziDejz9qHmxF7UFR5AQ/FhNBQdQj2l+BAaSg6HZLHX/HzJYemzxdweQG3BPrGKp6XkENr1WcJJHXaUop8J0ZbIc4GDoMgF96xF4Hf9lkK0GSTN167NRgufsGrO8UlEXd5+UWiuqeiwWFGqtmA/6hbIAdQVhKSh8CAaiw8tKbz22qKDqCs6tIQcRm1RAuoKE5eU2qJ41BYeXiDmosOQ5BBq+d2iNNQVpQbFXJgCWWoLUmApT0ZDcQLqi9gm8XBUpaPdcBT6o3thOrEfp73uoLlhod+F5mY5kDDKL4/+zDNB5TaAH+L173wZmryD0B3fA1PBftQWxy8QXlRtQGoKD6Gm4GBQTAUHg+/xM2be1BJJmiqT0KxKg6exAEP2MpxyVmDAWoJ+S+QZfIREaBBuaWo4huMogddWiHZzLtz6THQYjqBVm4NWTTacVemoKziI+sJD4kluKDqMxpJENJQkCBH74kbHo74oIMWKffmYYltXHI+64kTUFScsKbVFyTAXLy01RYmoKY4g/H5RekiK01FTmBaSolTUlyTBXBQvpLY4AU5NNloMR6E7vg/G/IMY7m0WkMzPsPREOCTLiJPw1+bmpNp8JE4aL7yN73/n36ErSYY27xnUFB9CbWmikLqyJNSWJqCm+DBqiuODYi5JgFLC3zcVHUBN8UFYK5Ph0mXBx26ttQQDXLemsUikAtynLWStIQMS6CKzp+O3F6G/WYKko+4oXIzF6I+iTZeLdv0RtGiy0VicIJ40S2kSmkoSUVtwCOaCw6gtOAxzAZ/ahU90HYEgANQGYSKDVCsgSUJd8eJSU5KIyJKMmpKUCJKKmuKFYipKQVCKU2AsOAxD/kHUFCegkWZUl4tmXS6MBYdEewz3OkOQ3KdJlgkJx5GZlDIzT0SIyj384LX/grEiE+r8fagrT0J9RQpqy5JQU5IgxFQcD4oMiqkoHkrh8dBnDsNUchjmsgQ4dNnoqsuD31oKf1OJkIFG+iSMkSytTahFhixSHEV0hx0lYp2cPmsBupry4DTmwK3OgVuTgzb9UbRoc2GvTEcjbXdJEuqLEsQT2FCaBFn4FMpPJLeRNATfqyVoEbQENYipNCGCxMNclgxzaZqQGsWW+9LrVJhKkoNSU5IMY3FSSEqSYCpKhLEwAfXlqXAZj8NlOAa7JgfmkiTUliRjuMclQXLvDmajBomYuCOZnVkByQx++N2X0aDKFlqksTwRdlUG6nmBNDt8WooTBBTGogSYxNNDgELC4/Jr7huLD8CiSoVVlYqOmqPot5cKM0NTM2wtFf4Jl01bSpvcB0kgD8VnL0K3JQ+ttblwajPgZtzEkAu3Lhtu/RE0laeAMNBXEFAUx4trqGODlySgLkx4TBa+pzSz0rWH3pc/F9wWJ8JcEh9RqGVqaS64LWWj8jt8LR2T7hm1TUAICE1U4N6KfQJfmgS7KgttNcfh0h+BTZWO+rJEWKqSMdRtFRZhfmZGqggtJmVxgpaU7/rI9UkkC8PZO5LJkTTJDF7/3n+hSZ2FprJDsFYmwK3Lgr0qFfQ/eFOEShWAJKGmlBcUuhD5gkzFiZAAiUdDVSLc+gw4NKnorjsGThKXAmNFGLIwQLY0ILI/ImsSah2W96RPwoSlPks+OhuOw21Ig9uQCbchAy2GHLQYcyS4aSrpf4htvLgG+lQSIPGoK1lclIBwX/JJFv9s8Dci+Cv8e9Lflfw7+XyCvxvw+2qKk2AmcAK6JOHD1PIeFyfCVBgPOr92VTpcuhw4tZlo1mSIa7ZWE5LDGOiqk/JJ7s1jdmYes1xBC/cwNz8jJmqtCBL6r1Lo5S5e/78vo6k6C5byeNgq4tFqyEaLPhtNFSloKKPKOyw0iXgySpOlp4JPRkD4pFDb1LFLV52BZkMmXPoMtJqy4acWCERYZQ0hO6UPo0kEJMxUC5gcj7UA3U156KzLFZA069IEJPR93PpcAQrPWdnobCBZU0iwLKJV6MiWJi4QAUuY9lnq+4sdl3oxEqBBSBS/V1tCE05AEoTwHvKeypqHW0tlmriuVuNR2KpT4dRmobvhOJq1aagrO4D+zoWQMOpKSOajC8k9vP79l9FQnQFbZQKaq5PRps9GmyEbLoZ+dQFYqMoDUNQUHUZNUTy4pVpurEiFpSodzdpsuPS5cBm5zUBPU56UshglSOi8+myF6LUWoM9yAp11R9FizBLOMZ8yQuLW56BZky3gDgdDbnQZoMUaVn5P3i72mYc9Jmsw/pYMSfB3A6aQft/CTkC88APry5PRVJ0urqXFcAQUB6PIxlx47YVo1qSirvSxQXIXP/nBq2hSZcNSkYgOQyZ6zEfAiGOrLhNthhwBil2dCWt1BuwqqrysBeLU0idgA+XCpcuGQ5eBtpoceO1F8FkLo6JJ5PxYmhyPrRA+ez481kJ01Eo3j5BQJfMc2kzHxflZKlOFBhHd9IB6lxtOBkhuNG75nvL1w8Kw1OeUvydrM+VnhSahX1OaIKSmJB5GhhDKk2BlUFKfA7dOAsSl473NQnd9HvyOEqFJGsoPwi9rEpqamXkxfrMKmuQu7v7w67Bqc2CpSEBPTTb6m06gjQ1N55A2UNjCTDg1fGpz0GLIXSB0IHmMW7sqDU5jFnqb8kRmvGjcFWsSKVbCTHsBiaMIHmsehCNL/0SfLW4gbyQhaTUeE+fJc6UTTrPJxhcxHvpZCmDYkEqRG1F+8uXXy9nKf2ep79LfM5dScxyGqfiQ2FpU6Wjm9RhzBSSMifCa+CC2mY7Aay0WK37Q3DRWHIK/wwwwkWyWkLDnuirmZiEk3cYsDFkL4Kk7im5jNlq16WjT8ynNgltLSLKFY0vnVhb6LzRNlBZdNnos+aIBaR4YCFu5T0JIikU3WIbEa+UTVSwCbL2NBeIGEhLeTHnLmyurahkW2V8hMDIcciOyUbkfvpXff5Qtf4OgyRpE/lvKranwIGpKDqG+IhE2DeHIgsuYI4T7DvFw0nxmgT4Jr9NnKxUa1K5OQVNlPPo7a1cXEql3cxd3gpokEZ2GDAxZ8tHfeAIDlnx46o6hq+aIcGYJAcFo1WcvKt21x0UBPY9DmjpBSMTCAyvQJBwRJmThkPhsBFH6Oz5bCXoa8oUGkSERpkdouCPiSSQs8hNprUpDY3lyUOSGlAFhA7MxBRSRejAR3pNBC/9N9lb499hdt1anCThonp0GApKNZn0mHLpM8ZrHnFoJ9N4mapASeK1SUJE9x8bKQ+jvWA1IWHhNBNJCvRuaG5smRwxmdRsycNJWiIHGPAzZCjFoLQTXmumrO4FO83F0mI6g25SLroB0GnPEvq8xH8Mc3RVPPFcS5yJIkpmQk4xEr0Ye4VVEWMN7OfLnRHdYhOUlSOSeEuHw2flUSX+HN4/SVXcCLYzA6nIkc0M1rcuBQ5MlhPtuwxHhXNPJpnZhzIG+S2NFsog90E8gIDUcuxHOJZ1zyVfhNpLw80oRWqM40LspSxRmz1KVCgdHsw25cBmyYdOmolmfAacxU5hpp4GQpKPZIIHj1uUKP2SguQJ+ewm8TYXivrq06WgsOwRfW8DczMxhbhbBLvDKejei2K8UkJeiJfcw+6Nvwqk7AkdZPLp1aThlK8RQUwEGmgpEkd0hK+fAlGLQXi4CY/IgnXLL+THME+FAnJgrI0ZvA1M1AyF2OQYSDsVirxd0k0VYXzGeI4fug6BJcZche7EYbW5nz0wvha8Zwnbqj8DJ11o64WwchvbZC5NUu8uUAyHGHPEUWzVpIhjYpEqBLAwO0iw0VCYtKvWViWisSg5KQxWdzzTYtXRAs4K/7zRkQ4gxsDVlwlWTDZcpW0BCOGy6NNj1BCUTXfXH4OeDSq3JNhET1orEsq+cJel1G0Xqx/xdrogmpmmFusAzyyj2K4Jpi0Ay/+NvwW04hubyxCAkg035IUgsEiT91jIM2EsxFGycYgGGspHFRQSmQiiPR2U/AItIfVywL0MipSH4mgrQVZuPNuNRuDhaLHpdUs+HzjXNjou9NnbVjTmi0WRg3KZctNQcEaLc5zE2drCR5cZWbOXfkLf8vlLk49xKf4N/i38/Ey5hbvj7mXCbstFWe0QEDYXJthaKrr8ISIZD0mIKQCJZCEbRV967WQSSuZ98B+2mfFH6UdYkS0Hitx6UMsUAACAASURBVJViwFIoaQumGQaG/QUcNC+PmgagAG4lIMlaTWgxkf5YCo+lBJ3mEwIKgiEBkiPAYWMrG03Z+HLDKt/nvvIzi+1H+rwSMH6Of4PbZn067No0YXLcxiwBDSPKfezmO2hWpTACNcnJ5jIpWm1RaJLHBsnt/0ZHTYEo2NatTRfmZilI+gkJc0/DhA0sgyJvV9Loj/Jd+e/J50ST5+McYkcZ/LZi9NTnoc3IcR6pZyZ6YtQKAXPDBmejtZqPBhtPbkgZmMU0CRteKfyOEh75PR6X31sAC7WHLh1OXbqITjOSyoiyAMPObr60T0CYRE4TLB7CBZDI5mY1NQkTo++8hlbDcbgrU9ClScVJa4FwXPsbaXJY/D9kbjhYJyZyL6EB5AZ7lEaOxmcX/F2RXlAKv61EGlx0lMHTVIjuuhNoN7GnliOGHZrZe1CYC3k/9JRL78vA8H25wbmVIVhqK/8eP0vI+LvyVvKJskXEmJFjAiEiytQcSnFIzj/TJXif6Jfw/jM/lz5Jn1MvRvLn786KXCH2WKNvbubvAne/i1bTCbgqk++DRFpG5OEhiUaDR+U3hF9Exzl0c2Uz6WvIQ1ftMdFobDg2JhuajSk3rLLh5WNKQB5ln99nt5bC3yUobbXH0NWQB6+lQBrA5AT55lLhoArNYZdmOjKAyN6hiDW9YZDM3RGQdNTkw1WZhE71Qk3yZoSEalkphE7yWaQCOuzSe6xF6LEUosdahO6mAnTUnxDmJvSkB4CReyGKhpYb/GG2BIQgEor2uuPi73RbCtEnBj4lKEQciCZlEXkiIJmf/Qlw93torykQjmu7OmWBuZFqqMqahBcVqBuyhLmJihZY4W8TkCFbQUisBTjp4ErljPmcwCCDhQxM0Xexl8JP36WZUi5e9zHp2lKIXksRepoK0N2Qj876PHTUHl8gPNZZfyKC5KG7sQB9DKU7yoLCv+fl37WVLNo7lH0rbum8LqZJmIlPc+NxGYS5YZUjEScBi/xKqQIMiS0vVUARTBPprhxSnvk+OuorYK1IEdMrhkWSUJFk/2RnKZAD8qA5M08KJEpNwnQDWYLnJyZ+SbktzG9ZKApNFFD7YkIZI8ePKCzYI51L+N8IvF6kAxA6x1C0ORhIJOiOYrRo02Etj0ePVQ3M/Bizs/REmEzGSCkrQ8/g3vxyISFuUtKSlL5Ix3Xm+2ivr4ClPBVtukxBt8gtpZMUhETqvbwZIOE5L4BE9LwkUJQNIPwVpe+yYF9KlLo/JsPjjyoB32jB70vHlFpjgfNNbSoPSSjMEEfVaZYYcbVUxKPXQkheD0IyR0i4HP3sjIBmeZrkISHhCQtP+k0KSRCGFZquN/R3HgYSapJZBSQsLL8qkNz7wX2aZA2SJSa0P07ongRImL7I2XyY+xE6GirRVJYiUgOEul5Ek/D4m8XcvKEaIFogPQQkPU0q4ZPQXb1LdyTamuR+SJJFRtpSkFC7rEHyGDXMAyFJQHdjNTD7Y5Exf1dMl4myubkfksiaZA2SxwjIQzmuhEQVgmT1NAnXSZHNzZomeaLM1AM1SbykSWaoSeZXx9yIaRWMk+A2upuqYCljnCQjaFIYpVSaF2oS2RQ9UTczWj7Ak/Y7AUhEdp9NKuzD7i/D925dhkhc726sBO79ELOz87hDc8NGneVg371odoEJyR30WlULICEE4ZCsAfLGmBvGRuT4COcfLYSkApj5IWZmApDMBqoCrAYkfTY1LGXJaNFImmQpSNY0yGMEJaBJHgqSBZqEUzSjqkkYzL2LPptGQNK6BsmSc5Qf+wPyKJCspiaZF4X27sDvMooZ+S2adOGHSKOmUgbaY785T5pv8EadzyKQ0CcZcpYFfZLOhjLg3g/A1Sluc8RF+CRR1CTsAousatzGYEsNGooT0aJODya30FElLGuQPEYTowRyEUjoxA67ysXYDct1tdeXAHd/ABYR+ImYnBVln2QpSJh1Lmdmr0HyBgFCWB4WEmoSQnJPqj0jUtSi5ZMoIRlQaJJIkMjd4DXt8hjgeShISoW5WTVNwnxI2dycbK9DQ0ki3Ko0YV6oQQiEDIW8JRzK/TVYVhEWeWIazT6F6YvWQgzTJ2E+iTA3xZi/+z0wRSAUJ4miTyIlHbF3cxvnei1oKk2CszplUQhks6MMrq0BsoqAyL4Jc1fk/UCOK6dWMOhpK49HR30BZu98WxStYUuGgmlRzSeRIq7nepoCkKSuQaJoFGUDPQn79BX5oCohmbvznRAkLIMnIq5rkCx4up6Exntc50BIqElag5qkEKsOiRQnuY3zfVY0BsyNvPad8sLXzM1Cta+8N49zX4aEaabMcW2vK8DMbcncSPkkUdYk7N3Mzt4B5n+Eq/1uESdxqVKCwTSlg7oGyZMBCduBMxQ7DNmwlh2G23gMP3n96yKf5PYsKx2tAiRzQUhcov6pDAkBkcHgkyLvrzmubywsCyGJF5DcXm1IZE1ypd+F+uJEyJDwZGQw1iB5A8FQZuYHHtZwTbIKkEgVbESMRM5xnf9xwNwkwKVKFU7hmiZ5A8GQe1fyfKHAFBH5YQ1BslqahPkGc7OYxV0h8+xYz89gYrgT9SWH4FQlL6pBZOdM6afIx9a2qwBUoCKUKPklpoRKf4Pa/aSjFF2GHDRXJIoCPbd//HUxGUs4riKfhElHK+kC80fm5xSQsI74LCZPdqNBQJIUEZI1IFYBCFlzKLeEhGW/wqZ5KiFxViSKMuK3f/wq5uZmpfTF1YCEa+AwP/La2T40lh6GU7UGyRPxIDx5kADXz3lhKadPEtncPBE3UPnE/bTuPzQkR0Fzs7qaREwwnsHzl4dgLtgPtyplzdw8CeA9JCR2dTZ+9P2vMTgiEp85i3flYfkwn0REX+Zn8fzlQXBJsjVIHpPP8SAQHwWSH/w0QMILVsz0X7HJCosdyL/HvyHvv+m3bzQkXDBnDneFyJrkOVmTqKNhbjg/JzRHZ0AUDZZLU8lF+UI1Q1g7ZEGjKiEQ5RoU7wc+y664AI83M7DPTK6fGlAiQdIsdYHZu7FrsvEjhSbhALAwN6xPgmXWJ+FCjXNMY+JE8fm7mOU+ZvGZqXNoKDwgSmJxEEluNOW+fCzytkgqki8augjD9kKccZVg2M6K0XkYtBzHgK0AgywUpxCuGdxvLYDfkod+WwEGHFzjhsIyUSxTmQ9vUx78tgKx+IDHWQhPcwH6A4tRc7GlYS7JxqqLPw0aZTFI+MDYizHMMummI3BylbPqTPz4f/4LXDn+DmsesbMqSh7NiCX0llWfhJCIpbfCIbl2Ho0CksRgXRLC8KiQsIFYPoqlngbsJfCx9BRLTbIMVaDhWVKLVRxlETXTWZ7KUgyPRYJMlKpimSpnOfqd5WCJKgrLV/Vai9DVnIc+Rz6GXGWiCvSwtRgUrrj10wwJx854nVwjWQnJzNxdcG1WLg3OuBeL2LCtn0hIWD2IgPhtZfA7KuBzVKG/RQ1vswp+tw5elxY+pw5+pyEo/S4jKH4nxQBPsw69dg26rSp0Nlaho7FSlMZob6hAV1MV2hvK0OsqQa+d695IxXYWQiKZusgaT2HCnkTNs4QmkSApuQ+S2bl790Oy3HJYS2qS6XNR0SQSJMUYaK5Et7UCTdo86MqPoLokF6qyo6gszkVFfjYq83KCUnY8E6VH0lEiJA1FuanIz05Gfk4yCnJSkJeVhCOpB5GbchBH0+NxJHU/7Fz7pblMLOsx3FyCYQ6hWwsDa/yxEOCbHJSHhURFc/MyZmYX0STRgoTFT+iT/MutK2jI3w93VVJwOgWfROVI8MM9mUzaLcFwiwb64jRkJe5GTmYSMtKTkZmRisy0ZGSlJiM7KRlZAclOTkZ2cgqykpKQSeHrtFQhWakpyM1IR3ZaCnLS05GTkYHs5HjUVGTA71bBx8I6jmIMW/IxbC0ImJuyACRvYlCWgIRtMBQwN66KZFgr0/B///s/MIcZoUnorAbNTbQgkVaqmMMXnh9Bff5+tFQlrxiSAWsphlsMqDiRiozkg8jOzkRO7hFkZ+bgSE4ujmTm4mjWESHHso/imNjPxbHsI2L/eO4x5B3Lw/GjJ3Ak56jYL8grBCUzLQtZaakwV+ai36WHz1oKTgEJQVKKARsheZNrk0UhCfhbliJhbgiJpSIV3/32lzH/ZoOEi0UPug0oOZIsNMiRo8dhNjWgwdyAJpMZltp6WBuaYG+ywmm1o9lih8Nig9PqgMvWDJfDCVezC26nG87APl831DUI0HIzM1BTcQy+ZkJShiE7ezb5GLZQkxCScmnplTezyVkCEqFJwiD53neWgGQljmuwCzxHX1jkuz20JnlwqkARvGwolx55WQnIycxATs5R2K0utNmc6LY3o7mxAfamRtibmuBoakKzxQKnzYpmqyR2SxNslibYbVaxdditcDrsqKs1IyszA9kZqTBXnEC/qwY+azmG7IUYtuQJUIYsJRiw/HRBwkUURNnwQIyI3X32biRNkgZCsqi5WS4ktFnS6tP3RHkCKU4yhy+9NIW6/INwVSTBx7VuwgrWyK9JsnL/fj+FQbMS9LcYcCTzMDKz0pB3ohguqxsuiwOtdhsc1ibYmiSxNjaKfW4tjY2Qtg2wWiywWSywEhirtG/Q65CWmor0lEToKnIx4NJhwFohnNYhWz4G7Kz0zF6LtIr5Sp1XXmckuf/ao9xjojYJRKrFdcmQ0CcxH0VzZRIaK1IC5mYOt1kujS5mIE6y7GAaZ9kwAZpVg+mwzsxSkwBf/qebqCs4DEdZArhUWjgIsgP7oBxXVlYm6f1uPTKzDiA9PQMFJ4rhbHLBabHDamuE1WqBtckKq4WaIrTlvvzabrVBKQ6bHTVGE9JS0pCWmojqihT43RqcslXgVEMhBuyF8Djy4XNIqzhEA5AHQRB+jx70+WW9L4KS0rxg+ftsg97aY3BUJqGuPBmvfevfRKve4UqecsR1JUlHCyGZCUHyj9GBhI1DSLxOLdLT9yE9Ix1F+aVwNbmF72GzNcEqNIkEhAyGcmttsiwAhLAoIUlPTURVRSr8LjVOWitwuqkIA/YCeIOQrPyJfhgAHuYzcsNGc6uEhItMf/fxQXIjKppE3IymIngcaiSn7EFaehpKiyrgtrQIR5WQCDNCTdJEjbK4KLXIAkiSU5GamojK8pQgJGcZZY0yJLwOQhBJotHwkX5/KQgjQTITbU3CyeIzYqIG8J+ffw51+YfFOnzehjwxdiNfgHzD5Juy1MnL7w9yiRCbCimphCQd6mo92h0daGl2obWVvRb2XiKL2+kSn5G3HW3tMJtqkJOVg/S0JJSVJAYgKceZVYCE18jGiCTy/VlqG7wfK4johv+2bPbpkziqklBXtsqahCsZzIj0ReCVL30WdfmHxMJIfXXHxQQgjtvIJyVfME9a3l9qO8zlv8xFSE7ZjZ27dyH+QBJyUnORkZSGjIwUpKelIj017aEllYG2jEwcPngIe3fvRVLiIRQXHobPqcKwpXxVzA2vLbyBwl8vdf3K4+HfUb7mveU9jiT8jFL4fYLbYz4KW3kCagnJN78kfJK786zwHRgFjo5Pchec4hmC5DOLQsKTUl70g/eLxACU3ZCHhIQdiIuLQ2ZaLnJScpGelIqUlEQBSUZaOh5WMtMzkJaSKj4fszEGhw4+E4CkGkOWMpxqLMTgG2Bu6OBHEmXjLndfCZW8zzborT0qKkDU0idZPUikNVHCIXFWJmGBJrE+Wjks9m5O2UvhMOQhPmEHNm/Zgpe/8iq+/fJ38O1XvomvvfJVvPrK1/Dq1155aHnl5a/hv7/9HXz+c/8MQpKYcBCFBYfgba7GoKVU9G4GHYXwOgrgd/B8GW1dufMaydQ8tvccjCiXYMghmT5OFme6QDeXoK1ORm15ympAIuobYX5+VuSS3BNFSubw8hdfgjn/kFiUWEDClZ1Y5kCsQiXddHk9YOkYV6daXE43l6FJnY3k+B1Yv/5pZKbnIjs9F0eyc5GWnojMjDRQO2RmZCArXZLs9AwoJSs9C5JkIjsjS5gmhvRjNmxCEiE5cQgeWwWGGotxsu4EBpry4LWeELkmfsvx+55wf2M+/I0FCuHrhRKuFTz1JyCLt/4EFgjX8TNmo4srrMtiyEaXLMZstGszRK3+Nk06JMkQ1QBYEYDC8hHyvvy6TZspjvM97rvVaWCxw1Y1fyMDrupUse+sSoG9PAHm0kS89s0vBs1NFLrABOQeuMAwoyRMUrk7N4+5uTv41sufQ/XxfaKCjrMyWZyIuypVTALq0GWhXZsphCcbUTTpcOvSYC5NQtKeWMQ9vR4bN2zG+g1xeHrjBqzf9Els2PBpbFy/Pigx69cj9mlJ+PnYpzci5ulYxDwdg5inNyFm/QbEbtiIzZs2IW7jBhzYuxPH0w/AUZWDzooktBUfQkt5ApzVyXCqEuBU7YWjIh6O8iQ4yhPFJCZuIwkXzm6uSLpPeC9cVSlCuK8Ud0UC3JUhaalMRFCqEkQCl7MiCZGkuTwJIUkUHQdxLjwfIXw/UcSvbCVSHMtdlQJHabzwHw35h/Dfr/5rABIgCr0bBs4IiZScIjKZRO/mHr757y9Cc2If3KS1KkVoFPmm8rV8c3gj5eOLbe0ipS4DhqIUJO3dim0b4xAXuxMxMTuwcfNWbNqyCZs2xyEmbouQ2LgtiI3dgs0xW7Bl0xZsDuzHxsYhNi4WsbExiI3bhLi4Tdi6NQYxseux/5kdIuRvrzoCV9EhdFQkork0AbbqVNjVyXBpDsFemQB7ZVJQbJWJsFWExF6VJIJR3FL4vqU8PijW8gRRborlHaTvJojP8Tdt/A63ZYdhLw2JTbnPiW6VSUHAxD2sSkFzVXJQqA3cqlQxtZbTa93VqaL6ZQu1R0CoTdp1WejQZ6OTS8eq09BlzBWf43fNJUl47RtfEFUF6LhGCRJO8QQYVOPIDdduo04557WjqSJJlDPgmrPKp4cnrwSFr5cUVRqaDcegykvF/u1x2LxpM2JjdmFTLGUbNsZtxsbNW7Bx8zYhm+K2gRIbsw1xsdsQS4nZipi4zZJsjkXM5ljEbo7B5q2x2Bi7AXuf2Y5jGfHw2rUYbizBBVcF/E2l8NorRBbbYHMRht1lGHJXYMhdLmS4pRInAzLcUoFT7dU426HGmU4VznSocLZTjXPdWpzr1gg5363FZY8RV7xGXPGZcMVrwkh/bUj8ZkwNNGF6Cbk2YMHkYMMCmRpqxPRwE6aHG8H9ayctePasY4HcPGOHUuT3b51rxnPnnbg2bMHzF1w4266CvZoR1xS8JhzXOdyZi1LElaF4uiGEhML/X//e11BfmSmejoGmfNwcsmDaX49nh614/rRDbLnP49w+d8q+pNw6bcety1601lcjfvc2xGyIRWzMTsTG7EBM3HbExkqQbNi8VWgWoV3iCMVWxMZuRWzcVsTFEJwd2BS3XRJqoM3bELt1OzbEbsbuPbtRciITty558I8X2vHSOTdevNSD56568OKVHrx0qQUvXm3DCwp5/korwuW5K61YIJdb8FxAbl1uwbMXXXj2khu3LrnFcfGax8RxF54/34bnFMLXIWnHcxfcuHXRKckFJ5676HqgPH/JDaXcuuAUr1+80oqXRtrw7PlmcJ9gW1XJaKhKC0RcA5CI9KCVzgWm9aJa4rihWKFiFi9MnwNtm6siEaM9erx4zoXPnHfjsxdaxPYlxWsee/GsEzx2vzjxwlkn/uXGWTSq8nFo52Zs3bQBW2K3Ci2xJS4OW2g+NscghqYkLhZxssTGYktMLDbHxGBLDEHZjbiYXYiL2Ym4mB3YErcTWzZTduGZPXtRkJWAWxd78dkLbXjunBPPX+7C9fM9uHmuDZ+50Coagw0sN/LNC07cuNCMG4EtXysbnSAoISI84jvnm3HjfDOun3Pg5kVXcP/6eYcCCAmOFy604/mAcD8IyQUn2Ni3LroWAEAY2OAvBIT7C+RqK26ecwTBeuFyi3j/nyd7cKqtCg3lh9GoysAPvvNlzM7ew+0ZaZXxlU/OYiI0nVXMCPd17u734DAXwVaRAmfpQUz1GTHWW4NJb62QkW4DxvtqMNZrwmgP3zOJ4xMeMxaTcY8Z06dbUF+ejfhdT2P35k9hR9zT2B63Hjtj12NX7KewPe5T2BYnbXfw9aZPYvumf8COgOzcsB7bNsRh24ZYbNsQg20bN2H7phhs37QR2zdtwv5tcdAUZmFy2IkXz9nxmYtO3DzfhulzHXj2bCteOs2n3IlbQWkWN/r5i26ExIXnIzzZfI+N8sKllmDD8rX0lEsa4dYZB5473RyU58+68IJCbp2x41mF3Dxtw41TVklO24S5oUmaCsjkQAMmBuowMVAvSX89Rr01GPXVYtxnxmR/PS50aTHmM8PblA/6TdQk/8N8kvkZ3J6dk0aB6UKsJJhGW8NyE7PC2NzDV770PIylqcIxbSs7CHvxPlhL4kW+a0PBfuHtyw4qFyum2MsSIoqtMgU1pfEoz92Lgux9yM86IKQg6wCKsg6iMOsACrP3oyhzP4oz96M89zCqjiag+khAjiZDdSwNquMpAUmG+kQyVMcToD6eCG1+MmpKs9FtPo4uXQpa1IloMeTAZTyODsNR9Ggy0anPFiWjWDaK0qbPWii6TLG8bZs+E5RWXSZatBlB4etOUw7aDdloN2ShXZ8ltjwuviN6e2lo16QHpVWdglZVqpA2OqIBh9/FHlJA6KwuJa5qOrJpQaFv6KxKFkKfkL1NOsd0XukTNlcmo4Fxkm8x4jor+SRRMTdi4Zy5QJHfOZw/1YG68nR0aLPQWZmADjUvgt2+ZOlkq6XuHy+YJy2c2kiOa1UqXOpEdJpy0azLgdN0HM01eWg2FaDZWAinoQDumgK4TQVoMRagxVQAlz4PTu0JuLUn0KI5gVb9MbSbj6K95ijazUfQXpuLdnMO2mqy0V6bhdaaHLSa8tGuyUKHKgFt2kQ42P3VZqNdlYmuiiTRKHKPzFmRLG6w0tlmN75dkyFiGYxnMI6xsGufFnwtX7ebjSiceDZ6ClqqktBWlYjWRSUBLdUpaGVcg70WblVpC4THZHjkbXh3mZ9p4b1nOzA0EfgdHmtXZ6CuNAnf+eaXWP1OFPsVvRvG5lcyOWuOKol6RGSlzaGjQYfmilx0MoijS0ErhU+ERhK3mrCwUjRLZXGbhJbqNHHR4gICNyC0nwZHGfv1UlzCXp4EewUlEdxn7ILdaOeC+IAUC2C8QHo/Ec5qWRj/YLUD6e+Lc1AnoVWThlZNKto0qWLboc9Auz4THboMSfTpaNeno4NbXTo6DZnoNmWhyygJ9yXh8Ux0GaVttykbveYc9NbmoK8uF321uWLrkff5ujYXvbW5Ykn7/sYTWFyOY9DKCWnSBDVOUjvpKMLJ5iJp6yjCKWcJzrrLIsq51nKca6FUCLnYXoXzrRU41VwCtk1DeSpee+VfxUN/b25eLEQg+sGzM8JWLGveDZe8ICb35tkBnkOPxQhXRS66DbkYduRj2FkoZt3xoiinnSWBk5RO9mxLGc45y3HOVbaonHWW4VKHCpc6qiVpr8YlhVxsr8YI7WqPDmPdOox26zDWo18ovXqM9S2U8bDXEx4jxgMy4TVhLPgdA0Z79eCxSDLpM0EpE14jZOFx7ivf5/6Uv2aBTPebEUnCv8/f5HWNewzBbfhnwl/L58Qtv3d9sE6c24W2SrSoEtFQkYzXXvmC5INEC5L5MEh6rSY4K3PhNR/HuF+PSb8RU77QzVjs5lzz12JJ8dViuj+yTHlrEEkmvTXBBlPeJOX+aC9vdEiUQBAe5evF9tlYo726oLABeK3cUvi3wqHgMWUjKs9nsX3lZ5fal//WYt+Xz0n5XX6O586HsF2bItIXX3s1ypAspkmcFTnwmI9hst+Aca/uvgaST3LCZ8Sk14RJj3FJmfJIFxGuCZSvJ/oMS35f/u3wmyY3nrQNaREZCGoPpSgB4r6sdeQtf1++Lm75Wv4bhCccIvmY8jqUkC22z8/yN+XvyL//KFv5u/JW/i4haVUnSzmur34huuaGvRvhk0glT9BrMYGQ9NUcw/VhM8a8ekiqXHqi5JMKbr0GTPYZMbGkGO57AsOfyHDQpN8ygPBQxqkhPCFzw78t36TQNqRFwoFYDAoZDmkraYzQb4Uac/G/FToX5XfCQQ5/HbxnAe20nNcywDLE8vZypwpt2lTRu/nmV/5RCsvPiHJ40gDOSnwSQsIgmlSYYA59thoJEtNRTA+aMOaTIAm/YPn1OCHx6CPKuFePSDLh0UEp4b834ZEabemb+mCfQ2liCIby9cQS5ixcs8jXvNRW+fnV3Od94DkQUG75WmgSbQrqy1Pwjf/8rBjguxMtSOiTzMwxSsJx4Hl47Ga4KnPRR0gGTEFNstSNGScg3sgy5tEikkx6dQt+g1CEflOHycBNWeoceHzSR79lceeU7wmNwRsqburCzwffD3vClVpCbhjlOYRDu5gJkn+Dpi/888t5Tfjkc1FCcpnmRpsiNMnX/0OC5G60IJmbmcXMPEeCpZEbj6MWrsojApKpASPG+JQrPP0F++xNUJN4tZjwaENbj/RaHPNoMe5dSjTivQmPBrKMi/3Q9/kbEwEnkjdoQtkLoT8UeB2EQNHLGffwhir9FZOAhDCFmyRJu4R6NMrrpDnk6/BGFZ/xSd+RG0/+DM9ZiPJ7yn0lkF7ZR1rCpCs+K/8d/u2lIImyJuFKWfeEJuHYL//1t9SiuTINfTXZmPAbMOqVVJvypgX3BSRajPdV4tqgHqMeFSb7dZj06TDlN2DKqxMy6lNjzKfCmI9QUFSY9KrFdyb6KjFFB5i/1cvPm8RrHpsiAP01mPBrMemvwri3ElP9GkyK13rQcZ4QGsSIyV4tRthDGajD2FAtxjwaTPVpMO7RYbSPzrUZ0311mO5txHRvAyZlgLxGjHpqcdVXi7HBGqG1bnoMmOrVYKrfp9riEgAAIABJREFUgFGPFiM9Gkx6NZjsV2O834AxvxnTnhq8MGDGtc5q3PDV4EqXHtP9NYHzrcG414xxbw1GerWYGjRgckCFcZ8O49QEAZE1HzXltEePqYfQmPyODLRyyzBDqzZVLPj99S+9INqSCWTKyVlUA8uIk0j5JDMiLC9BMtheD0dFAvrMmeKiIkEiTtJHz78SE34NrvapMdZvxKiXjh3NhB43+o0Y8VVh1FuNUZ8GY161aOSxPhWm/TpM+9S45jdhpFsDOl/T/SaM9Gow4tHjqteAK3RS+/UY81VilJAMsrG0mPDpMe43YtzPeIUJ16ix+mtxaaAR5z2EuxqTvRXivZFes2jkKY8OU30chyJcKoz2V+DKQDUu+7W4eqoBVwfqMNqlw7VuI24O1GHEZ8DYoFmMk1CjEvbLPhMueRsx1luL6906PN9nxA1fPSYH7JgarMUkv+epw5W+elzsMWHUX4tRvw6j/mpM+HWSuaNG4TkEeoVTfXpMi3Oj73a/xpK1k7S936SyHS7RcdUwTJ+Cb3zheQkSjukzLM8iNvPLLmKzNCS95gyM8+IiaRJeUJ8O430a0fsYYSzhZBOun7biSq/UkBN9anFzx4Q2UWOUpsmnx/RgLUY9OkwPmnG5qwrXBk2Y9Btw7VQ9Jk/VY+pMEybOWjB+1orJMzaMDjZi+rQN4wP1GPXXCDgm/CaM+6np9JjmU9vfiPGzbRg77cBVjw6TfWoB3c1THFirx7NnanHzbD2uUc7XYvKiGRMXzZi8UIdLp5vw7IgHt0614ZrXgesnWzB+yoXJ8224eb4Dz11ox80LrZi+0I3p817cOtuNl0658Fx/E656GnG534XrZ9tw40wHrp/two2z3bhxtgvXz3A4vw2jAw0Yo7kMmiE9CMeUR49pQtJnwBR7ckuZdnGc1xoZEmvZqkEiJR4Rv4G2upAmeQAkJJumh+pyimq+vwnmsmT0WkswMdSAy92VmB6g0xoCZcSrxSif0P56jA80otXEeEytCGJxxNPvqkCXrRS+Di08bTp42jXwthrhdZkx2FYLr0OD8QG79H1hbvTCLFzpNmHqbBtS9m/CGa8FV301mPYZcGOgVpQ/f+ZTf4E9n/oQ9jz9l9i5/sPYuuGvsXXDx6Ttxr/Clo0fQszf/yn2bfgYxnwdaKtT473vegc++Ee/hT9+77vwoff9Gv7ifb+BD/7Bb+EDf/Db+Mv3vRsfes+voLumUADyiY/8Gf78//vf+MgfvQcff//v4u8+8Hv4xPt/H3/6u7+JA5s/hfEzPbhKjRPoDVKrXevTSYD0GjDdW4OpXvpMIb8kaNaD4DwEJKuiSebvYkbUlpfMzcmuJpED2mvKwLhPG1GTCOoZaOrS4MawAw2VuVi3bh3++k/eg5sXOzAxXIuRvkrJcfVpMebVYoRmYrAeY8MOaAtSxed3/s378fkxPwacerzrqXV4at06cZy/9dZ1oddvC7z+5J+/F9dPOzAxYMakj0+fFjfPtuGZmH8Q39u+4W/x3MUOEeqnn/An7wr9Hn8zJD+n2A8dt1SV4UR64qLvhb4rfT5rXyyeGz0tPqs8b37uLYq/9bu//mu46Ldgws+eFf0vDSY6VZjo0uKmvwHTXgtGe9gLkx48AqLcl4BZHBJqF5objrHZy1Px8j/fFI0pEsmiYm7m7ohMEqlvA5zttYlczG5jmmjUSOaGkEz26TDVq8eNIQdMxUeCN7bkyCFcHWjATZoND51MHca8Olz2GXDtnBuX+p34rV/+BbDhN/3VB/DZq6fQUW/E29etw8+tW4f/8/u/g99+1zvxvl9/J97/nnfj/7zn3fjge9+ND7znXUje/nFcO2XH1V4dbp6qw9UeNcaH2/Brb5cajo01MdyC6/2NIpDntRZAdyQJhoJkaIoOwVCdjU9/4qPiXD/1sQ+jRpOL0uPPoDR7P0z5Wfji1DjKjknX8vef+CsMdDnRZzPD11yHXlcjul1N8DrNGHCqMTHoxuWTveK3fuUdb0e7vRaOmnJ0W9RoNZdCV5iFP3jPu8X7n/7IH2D6jE34LVc6VHhhqBGTPUb8yxUP/unKAC51SJCEemwhYCJBwi68gESVDEdFGr7y2eloQ3J3ISR9dgFJlyFV8sbpk4jg0/3dQwEJexG91QISY+lxcTN+4amn8MtvW4fJU27hTE4yckpn1mvAVX8Nbl7uRMzf/0VQS8R89C/w4tVhtDfV4OfXrcNv/uovY/ziMMbPejA6wGShHkyfasf0STcmB6x49owL434pGjzqUeOzV9yoOpYifk9+0rMPbsf1ITuuDdKHMUspl2drMHlejWen7chJ3yrONX7PRrww6cCVQS1unWvFjaF2TA/2oOp4lnh/0/qPYvxML8YHWjA+4MDIsBtXhlowOtyMMV8dJvxWXOpvE5/9jXf9L1w914erJ90YGbTgsq8R4yfbcGm4B//7nb+EX3jrOpz21GDipB2jvXTWDXjxTAvWf/D38Cfv/lVMDrct6O4/jCZhVz4EScoCSBj5io7jGqZJznkcwtx06pOF4zruewAkfdWY6ivHtZM2GEpOiJv19qfeLjTCtn/4Szx7rgXXeCEMrTPodtoCY1ka/tdbaUreiret+0Vs+vgH8f/au9LoqKpsHVFkigioKHb7tLulVRAQQWhUulERG1EZWhtshoRBJhVQhEyVVKXIXBkrISFzUnMllVTIQKVSY2YGRfo95b3V9lvddq+l7/Xwei1tRUjC99bep24NmcQ0/lKyPs6d695zvrvPPnvvs29vqwYlajlLkVkzJsPTUgG7KRO2Khk6jGTXSIWborH0abBVKmAnCWZKQ0tFHHoa1Fg0+17+7f173+JyUlgYTp88wcNNt0kFR2kKXNUK2IxH4GpSYeerz/Nxu19+EY6aFHQ1pKKlVIZ2TSZ6aiogP7Cd9699bgl6T2ng1KnQaUyBy0xDbBU85jS4tUp0GFSwG4r52KmTx6HTaUCzIR02gxIt1XI4arPhaKjEPXdOw8TxYSjMjYHNnAeHKQtdtfnwGPLxwB1TcefEibAUZ6K7Jh2d5nQelbl40OBTZulFZaV3qOLKJKEhcEIk1LG78N/n278FSUIxriItCZr0hTzvo1y5nUcfTlIOR5EkLk0i3BoZemqykRr1BlfWwgWP4OF7Z4EaKvnofnQ35qJVn4I2Uy7c9cW47/YJmBgWhiULFiEs7CY8t3Qeztr1KMsTJPnhnVPgailDB8WkNmTDrk1C18nj6KjJZEXUS/6kSjlayxQ4U1eA8pR3+HrTp0xAT5cDi+Y9yPdxYNM6dFkK4alJh7sqG+3VKng0ieiyHscbWzfxMds3vASPMRudtclMAq8mFR3m4xwdR1JpzarHUVelhrVchZriFBhLU2EoS0JNiQyemlR0k1QwCpLcdksYnLYS2OrT0WKWw3UyC6cdOhyLfpN/a9atE+BoKIbTUoyaohSoEw6hUBmD+2ZMxfRJ45GRcBjFSW+iLO0gHJp0ODTCiCfqn8hC8BkIWZklRZfCR1NgK1ewTpIftwO/O+dk63mIJBl7HldKXkOZBMh/w+RDq6kE+TGRqFDu4GHs6EMysokksRHsvCkDWUf3cmWsWLEMlVlR3HVMnRKOGr0CTRY1Ok/VYsMzv+Bjli+eA0VMFC//8rEFuNBWj4rcZD7n9lsn4vDB3XjnjR2IfSMCB17bjDd2b8E7u17BCcV2tGsS4a1MRJcuE6fryvGrJx/j6/zm5ZVwO0qgq8zk9Slh4+ExlsNrToJdl4Z2TQq6yxJwriYfr29Zz8ds3PAcOq05wvhmSIOT9CtLPo7s28z7b7zpJtxy0zi+L6krk8pXVz+CLmsB3PVCJ5l+842o1eeiviYF2qo4lBTKsGndaoSPG8fXkr++GWdOlsCpK8KDM2/ja5JyS3rZeJasYpmu//bWF9BTVwiyGrMDlXQ6PdlqUtDGdiChxDJJtCkch1OWsIMDuD7sbeFZD5cpvR4rrn0i2e/Ysi/6SHJ1eJK0VpM5faguEjw0EyRJxHmTCpk+kjzz1OO42FWLnz/4A66cXyyfDY/diELVMV4PDwuDuVKNuCPiDVv52IM47zShPE+JiTeEjgqkBpHKqWFhaNOnoZVCEMzZqC1Pwe2TwjAlbBxK85Ng0KTA1lSNxXPnc+W/tXUjek4WopUtrknoLJfhnIVIso7vZdP61eisV4N8UB6jIElXbS5kByJ4/62TJ2D2rOmYfdstuP+OcPxoZjjuvWsKfnTbeBzetoLnxLSahCQJHxeOmeG3YMqNYZg2cRymjBMjM+paN29Yhe7GYjj16XAZ1di5fiWWzbkfTz7yEKZNGMfPvfjh+7H0ofvw9MKfojj5bbSbc4XBjTzs5CTVH2OSOL6GJBd7T/lIIukk15kktm8oSewsSRLxHpHkiJAkSx6biw/cepjyZKxjUAOnp8gw+4eCNG9uX48OuwExh3ZyQ6xc+gDOuUwoVSv4+Bm3TMb651Zh06rnseWZ1djywovYtHYN1q1choSDm9CkTYe9NgfOxiIc3PsKX4O6r7tnTMH0KTcxZkyYhPCw8SBCeq3lcNbkwa05hs6KOJy15GG/jyQb169BZ10RHNQQxjS4NEoQSWL3i+7ohaefQNdJPbyGAngN2XCZcmGvyYbDlMrW45YKBY/U6BknhIVj7j0P4b7b7sC906dhSlgYd7mRr6xGr9cIuykVreTjqlGhs+EEmnTZ8DZq8PCPZuKuqRNx0lCCnlMmeC0lcOizhB5G+hzrIskg/ZAkCZOEh8rCF0UuBorokyTJt04Su7nU193sxNdKEm0yiCSO6kS8a87wS5LHl87DuzSpyVqAt/eKN3L8TeMw6YYwzJ99DxwNJdzACe8I5fDppXNwxm1BSX4ij1DumXUrOh31XGHvtRjRUVcCr7UQZ9vK4LVmw6ZPRpMmDfbaE3jovpl8zl1Tp+COyTdi1rQbcfe0cfjBreGYOWkyi/TXNr2I9sZStjt4q+Jxpi4X+7esZXJtXPcCOi0laKMpISRJNMfQXZsD+YFXef+LK5ais74SHbosdOuS4TXQcRnwGCmaTgGXPg1OqxjdzJgwEXaLHjZTJdrMWsTu3sMkvTv8ZujKlHDWZcCmU8BuTILLosIpfRqbA+6fOQF33ByG+vJstJkK0aan7i8NrZUKEYyl85nz9dS9k6+JBgGkKwoldjBJRHdDn978lrobt7UaBbGRqDi2C3Yt2TYGj9WDuh9tsrCeahU4Z0xH9lGhuD6+ZC7etxXBRQ67Jh0emP1vbCCj/rdCnQB7fS7s9dlQHInkhnhq8cM47bSiOE/JBqh7fxiOloZcNJMuYUyAXRsNtzkWTmMs7JpotGoS0GEpQKUqnt/U2TNnor68ANbqbDTrs2GtTue3Ozn6ACu0d00N53Vy5Hmq5ThTr8buLWIIvHHtGnTR0FOXAYchBV59Cnrq85ByRBj6Nq1ZiXdtZpyzFuOcJRu99fnotBaiuz4P3bWZcGhT0d6k5ee4c/oNOOutRCOZ2mmuT7MBT8+fw/ueXvYwuk8Vw0ZOz7o0tBoS4DATWTLw87l3Y/6s22DT5qHNkAWHLl3oIuT9Zi88OQaprlNg0xxjRyY7CbUUUknSL5klSWn8dn7BP+hqYsWV5wKTrkmT7khxvV46ibtBwyQpV+4Qo5vRdJJgkhjSkXVUGKCeXDIH51vUcFbFsq9DV5KL2yeOw86XV6G9oRBN5ORrUPH8HhLTKxfOx7m2RpTmKplMd915M1qb1PCeyoOnIQWeOgW6rUnotqagsz4NvY1quM1qbFm9nKXIaxvWoutkBWyaDJ5T6zSlos2Ujo6mMvxs7o+ZeHu2rEdH3Qn2j/TU5WJ3hI8k655Hl6WYJ5k59MnoNKWh15qPhAPC4vrk4gXIkR9B6lvboYragbSoPUiO3oe0o7uQ+c5muPTZsPl0kmmTwtDjyIetJhZtpnjYNSmoLUzDg3dOZ6JE7f4VehsL2RJt08WizRgHm06Glgo5TpWnwqXPYX1LCuQiL7aXPNk+77Gdhv/k6aYwSI4rGYEk3d8GSYJGN54GLU9joKBacsCNNgSmoRl5Ssmgdc4QkCRPLH4A55uy0GtWsFHJU1cKu06N3qZitFTHo9UQC7c1DclHxdv67MK5eK/NgrKcY6xszpg6Hi+tXoZVy+fhpV/Mw/qnFmDtzx/BmifnYO2K+di/7XnUlKXjp3dNxrQbw2CtyEG7OZPN8BTb4tHGwWmIgbs+A+rkt4SeM/FmWMuy0GlQoaM2G6/vFIrrr9f9El1kpNOmwm1IRacxHd11BXh9m9hPJCYJONjkTttJ53h63n3objELSXLreHibT6BJG4U23WEOhTjdWA7lob18/h0334DGChVs5Iyk0AdzLNwmGYdVtOsz4dGqeARD7hCPVg6vLmFYklBIxJhIMrZkv0NHN96TWuRHR6BUsZ1d/nQzUvBM8KiGl32SxK5JxBljBrLeEYrr8kdn40JLNtxVR+EwZ6JNnw1y1zsohsOQAKcpDk5LMpRvbeHKfXb+j3Herkd5ljzEahrs+6BGkTBpXBjiowTB1jz1KFwNhWgtj4VXnwhXdSzc1UfhMhyFw6SA01KAZXN+zOfK9m5GjzkPpxuOY8+W1bztlRefQZelwG8LojCCjto8lGTGY9GCB/GzxQvx+MK5eOKROVi6aAEeW/QolixaiOUL52PF/J8gJ2o3epqNeGbpfLz261/DZjwBtzkNHmMsnBoZXPpMdFir8eySefx7G1YsQm9zEZqqYuAyxaGl4jBcWjlO1+TARdNnWWoo4CWSaOTwaCn+RpCCR3WjdDclCb7uZrAkGbge3Q0pOD47SUejGblHI1GVtBdtpPEb0kchibAGkhLVXqOCVvUGnpg9DQl7X0B3fTYrWLZqJdxkf9Cncl9K/hYKJKI4EPo61rKfTMPhratwurEUbnM+jh3cCNn+DVAe2gTFwVehOLQJ8oMbkXR4M+dLSTz4CspUh+C1HsexwxvRUJUMpzkHbJ30O8coKFrJiioFXVMa8X3rlsNaGA+vIQvO6jQ0FMqw5dlHoUk/iHZjNjwG0gOEB5YkJA2He+pz0FOfi14rIY/LHmseCLSN9tP1KWyx25KNLks2mwxo9EHBTqTcknWYLKKtVYl49uFZSD/0CrpqVTxfxlYRL5x9UgwJK6Mi2i9gbfVZvOma3PX7LK4+pZXM8uTgo/DIUuVO5MdG4FybmXUSatPLff242neFdRLKmTi2oCMypgWRpLO5BnlHSHHdA3t1EmvvI0oSKYTOQBFZaUyU9pp0dNSoWBx6TOQFpog16pKSeJkI1aZNhpcmFZEfpy6T9YiWqhS0atLQ01gEZ20OvPVquK1quBvU8Fjz0GHN5VgVryUbXksOHKYMnmFPpZ2tkAEXOwXhiACmNG5Acph1mcnRmMqT2imNRqcpC+1GFTpMmWg3qNBSJveHaRJZ6BzyIEugwCaypUhEGq4MlbTkSjjG12k3pfF5Z0/mobMmg7fbKuToqs3k7QGLtm+QwBF/gcAk/3V9w97gmJIhJIkJIskAkYR0iStsNKWg9+tCkl5bHUc30fRIW6WQAiORhCqKYk6pSyIS2KoSeZmIQCCpQSSRQMcQMWhdOoa2EZnaqKFN6Wgsj4fdkMbe4hZ9Mlr0Sbx8isIIDRQplopWvRLNGjnsRkoqo4SDfDv+GXtiklWHOYMbgN5y0cCpnA2BMh94dBnw6AXajZlorUhCu0lIEqlBJKJI62Mp6ZpScDQtE2iGn3QtIoq0fG2lkBqjkUQdsw1n7SRJBnCl/2ooSa6XJDljt0IdvQOl8l04VakUEWB+MR40/JXiHXwEoe5GIgORhSQFlUQKIgJhMDk6LVk+0ig5nra1Wg53jSCBTa/EKXKSUUlxLXoFbNoEhqc2FZ7aFNj1CobTlMyNQQ0igRrEXpXIb3JbdaJvO0mCZLY/0Btoq1CwqKZhJInr4IYaLClo3+BtUiS8VA7eT/dC51GXRDYP6fp0/OBt0r7Ry2sgSTSRxCTm3fQP4CsOdPVJkutFkvdcjciP2YmyxF1opTm53E/6xOBww2Ey7PikiSQdWPMO2jbcunSsuD7FnIp4E5oxSDGhdoMSrUYl7MZjaDVSsJICdoMghUQO/zaDgidwSY1EjUCVTeuBShd9OcflBoUABtbpBQg+figppDiPkUrp96Vy6D0EXrLQewtsD9zvcNuGkoSkCj2DpJPkRW1Fd4tO6CQ0F5hccn2XRZdz/UjSjPwYIUn8JBlUeSEP4iMJNfZwZAjeNniZicKjJzpXKYhC2n0QUdr0gjBOIsJIoCh8nrop9BKJJIFGEo0/UsOI7aEECXnGIYQbrgEHkzKwLv0uldLy4Otf2/rXkWQX54sRJBlg5963QpLz7mbkR4vEK600oYjfulEq0C9JqKG/OaTgYIo3ISMS6T/sozAksQ7CeoiBhoDCC0pDxOEgSELdiZiCKSqd7tsHjsfwhT0Mt8xSMuh46Tx/OVSySI0uldfe0EG/M9y9jLSN78U3uhkkDYUkESTpYUlyHUnC+eSDRjfve5uhjqIkK9t5dOM00Igg6KEGdznkjfV1LZKkoPVQCEU2uIsJXiZxSe5wFv10PZ/i26Yn3xBd3xdw42+w4JGMuDdJL5DKUJLQm09d0CgIecbQ6/PbTy/DoHQX/nUfMSWSc33R9YZFKFFFjIh4QcSyGNXQcHcwRDsQSUIlGdUb3Utp4k7OSiVIIvw2wir/L3U3IqkejZ8pxxZlXrzgbUReDGXg2Q4PKV407KN+z49AI1Jj8iw58jUEwUXucF0AboMKXwcPRZIzMuAxqBjinEy4yYbhm70njabIOiqBlGM+10DHCjh1GQgG+WZcelUAg9bFb0v3QPebCQ/FyAbDnAWPKQDKaeY2ZQkYM+GiiWQSKHcJBWr74F82pPPz0DO5jRkc70pzdQTS4DSmjAiaQiLmLdM8IpGjjobzNFJrrVByJup82R646zXA1a/w1eXL/IVxTgU/QHnP+scyBKaBkkisB8509BUutDci86hIOttWLoe9PAGtQbBXyNFWGYC9QgFbmTwEp0oTYPMheFnaFlrKQceMhpYSGZqKY0LQXBwLRkkMmovj0FhIkPnKODQVxaOpSOZHS3ECWorlfjQXJyAY4ng6Jx5NJ+LRWCRDw/FYxsnjsbAWxMCijkJdvgAt1xfEgFKiS6Ul/zAsBQJ1BZT0hzIbBYO2UaajYASSBNXkvQ1z3sERUZN7iD9ja8l9G5acwwxjxpswZR6ESXUQlcrdyJPtg6NeC/T9E5cufYnL/SI/LyVPpK+jjcFOIkjCH2pkklzGh6cdyIzeDbVsF4oT96IwbitK4wMokW1BKLaiJD4CJfHbGKXxESiTR4aAto2KhAiUJUT6MfTYbSH3UCzbgqLYV/04EfsblMgiURIXISCLQHHsttERF3oMpRkfgthtOBG71Ydt/I1k+k4ygfKjFcVtCwHVVTAohXhh3Db/Nj4vXuQ7o+58CPjaW1Eko98aDhE4HreNQd9GpBSqRbJIUL60Qso2HRuB9Og9sNVquFeggc1XfZR6VfQY/xpJOPEapcO6gv863wX5oe1IPrwDubJ9yInZjtyYbciNiWBkR29F1tHNyKKMjEc3IzuK9kUGEB3J22i7hNzoCORER46I3Oig8/la9JsSIjldqFoWCXWchO3Ip3zqEuJ2IF+2C/my1/xQx+2CH7G7UCjfi8KEAI4n7MHx+GFA2xP2oCB+9xAUKvYhFHtRqPBBvg9Fiv1+FMr3o1j5ZghOJL6JIkUAJxIPoFh50I+SpEOoSH0L5SkjoyIzGhWqKFRmRqGSy2jo1fHQ5cZBlxcPc2kO/vKn33F4wJckSWg+8L9OEsq8SHNFKWz2Cq58/ldcfLcD5zta8K77JM63N+P9Lhve7xS40NWK33bb/fj3Hjs+OOPAB6cDuHjOjYvnXIwPz7rw+9924fcXOofFRxc68Yf/6MEfP+zFHz8Q+PjD0/ijH73483+exScfnccnv/Pho/P49PfvB+EC/vqHD/CXIPz9Txfx948F/vbxRXz2yUeh+PQjfCbhk4/wxV/+gEt//xMu/e3jAGjdh6/+78/o+/xTXJHw2afo++J/0fdPCf+DgUv/CODLfwCXPwtF/z+BgS8C6Psc6PssCJ8D/V+MDDoXXwKgUgKtX/Jt/xLoo+19uDpwGX39YoQTIMmYdRIpszzHVgP99BkCocQSaa7tH2k2o4F1bDbwiO8Of9P1a7uL0KPYQhC6KWQt+B5ox2j3L+0LPocMVQNBGPp7oUcPffIBSrJMqoIE0i2plvjNH6bk7KyUmWowKCGn2EafyrrafwUDA/0Y6O/HAH096ypljyAMjEUnEZmgBRmIEP3o778MGhbTD1259AX6+sj9N0oV0rdn6dOiweAsonTjPgTvG7xMeagHiPHDQ+wTlUlvBFUo+ayu9F0dFZS/9JuAUjTQ9UeD9OpIpZC9gdrj9avgEcWV4UqW1YOO5zzc9CkZ8TmZYc+TrsXni2NJzxgOUh0JUlCKTuopCIIsY1BciSTi9sRPD4D/fI1B7KA8r0SU0UDECuAK+vouh4CG10w8It83Bn3Ri96KvhCIB5cqYJiyfwBXg+B/s+jtGgb+Y6lSh8HAwABIwQ8GvffSHy3zMXTcSOCPPVzhOqd6527BN3+SsvvTSzriub57IuXz6oigF1pIFZJ9LB8H3cuYSEI3JyCJT4CG1H19lLyemEivV78fpL+EgA4OFtXM2j62uzA5yP5COg8rx2MoWV/i3OYiS9zVa1ym+wpB4BmCn8e/TNelZw1+lm+0TH2E71n5nknPGwz6ijsd44O/W5dk09edT/Unuf37fO7/4JJkN734otsikvgliq/LGQNJBNu+//+7UwPfk+S709ZjftLvSTLmqvvunPg9Sb47bT3mJ/2eJGOuuu/Oid+T5LvT1mN+0v8HkzLU/3l7AAAAAklEQVSeHx4xF9sAAAAASUVORK5CYII=;" parent="1" vertex="1">
          <mxGeometry x="340" y="190" width="42.02" height="150" as="geometry" />
        </mxCell>
        <mxCell id="cMJ7TMU19dDWg3M_NZdB-3" value="" style="shape=image;verticalLabelPosition=bottom;labelBackgroundColor=#ffffff;verticalAlign=top;aspect=fixed;imageAspect=0;image=data:image/png,iVBORw0KGgoAAAANSUhEUgAAAC8AAAGQCAYAAAA+zDm4AAAf30lEQVR4Ae3dB5AERdnGcXPOOedcWmXOuSzLWEZUDGBGyRkkmLMSxZwVI2IWMKAoRsQcUTErJgRBiep89eviuWqW3bud3r3dW7/tqrme253w73eefvvt7tmZ83ULnM63wOzdEn5eV29p+f8py//nP/+ZSXnWRTbg//vf/657AZbwgyZeaNkoDNn8+9//7s4+++ySDxZwGv+vi2yAsf7CwrO8Aiyk5achi7WOMRXZnHHGGUUiZ511VrG0k/7hD3/o3vzmN3evfe1ru5///OflKrgSZ5555tTqwFTgayDr//znP7vdd9+9e/azn93tsMMO3U477dT95je/KQU47bTT1jLo2N9PBT6ukb6lD37wg93Tn/707vnPf373gQ98oHvDG97QPe95z1vxQNNqwKYCz6sAYnUS2mqrrQr4K1/5yu7QQw/tPvShD3Xbbbddd+yxx05NMow0NXjg0tFHH12sztIs/vGPf7x717ve1W2xxRbdq1/96rLNtP5MDT7SecUrXtFtv/323Ute8pLujW98Y/fJT36yO+CAA7q99tqre+pTn9r97ne/mxb7dCxPMuSiMj7rWc/qXvCCFxT49773vd2HP/zh7qUvfWm35557FjmR0LTSxJYHzkVK3/72t7snPelJ3cte9rLOFaB3lVfFffnLX150v9tuu02LfXLLg1dhJX6d5VXUffbZp+id9cGTEensuOOO3e9///tSwe3LQ0VyfUs1seWdMC7yuc99brfzzjt3r3rVq7r999+/O+KII7p3vvOdRUYvfOELu7333rsU7phjjimcabQUoiVNFf4pT3lKsTLJqKzg3/rWtxZ49eDFL35x8Tpvf/vbCysPdfrpp7dwl32mAk/z//rXv7pNNtmkaJvmWfzwww8vhSAblgfP31uXyE1Fn7vlf/WrX3VPfOITi955l/e9733dpz71qe6ggw4qV+NFL3pRgVZhd9lll+4f//hHKQDwuWoeBdBUVpbnIj/60Y8W7bM0eNJxFcQ88ffg08CV0vT4M7Fscslf85rXlACM1eMmP/axj5VWFbQlhXjmM59ZQgWc9o+36sFdNp0YPifkBnkT/py3YflPfOIT5f9YneYtLJ/GimTmKhseQzAGntX5+MC7EoAVgK9PpX3d615Xyg18rpY/+eSTO24SGL2//vWvLw3UIYccsgJeF0DsozAS8LQTuYrj5lORzS9/+cviaUgGvJaWZEgDpAW8hfV33XXXEuuAnLvmjzrqqBLTCHnBa4TAs7yKWsMrgJZ4m2226Vwxaa6yAfm0pz2t+HjWF78LhUfB8zq2/+Mf/zh7+ESR0SqLa3h4GVbWQLH8+9///hUXGdnIbSO2P+6445o9jVI3ad5lrrXKTdKxQoADDV4hhskGPMt/73vfK5Zv/dMMH//M+vRrtIDlyUZF1f1797vfvdIwDVoe/Fe+8pVW7rJfEzxw0Kyv98TH77HHHsXH77vvviuhAe2zsmUY/JFHHlkgHKclTQTvhH/961+7TTfdtMBpoHREVFayedvb3lZiGRU08Apiuy233LIMizjGTOGdMO7NaNjjH//40k/lJrWu4MnmLW95y3k0H/itt966eKWZw0fvTvzVr36123zzzYs1hQJ6UKwO3tCHChury8ErpJE030+SmmRD7wog6S1xeyqr1lN0GXjxSw0PPPC6iwo6SWqC5+cjG8N54vj4eMCsLr4/8MADi7cZ1LxC8k6TDkI1wdeWF4TRr4pKFhklq+FjfdAsbzveicwmSU3wteaBGM5gees63DohGSkDPgivEBo2MY40M2/jROCTs2AaKFbl23X/6J6mdfuGwQPXn3WcSLDvVehteeAJD/T8jb2zIsvTtkGmwBujBB+puDLWWd5ArEobQ/QFt31v+NpSelDbbrttAaF5FhbPBF6FBQ864Fmv4VvApwZPAlpNVhWUjYIPuHzDwKfvSjZcpwpL84OW33DwRsDAkw14o8LxNuBTWQM+TPNzk43ONPhUWL0njdRhhx220kgFXD4MXj1qSRNXWJaPtwFmTJ7l60Zqw8DHVbIUb1PDg1RZNyx8GqfAc5WRDf8N3rIhLQ+a9QOvC8jt0Tz4j3zkI0U68TZ1UDaoeQ3cTBupteBZPUN9iSpHaX7DwbP8wsKzPI8T2azm5+diefG8ZORALJ/wQPeOpwEvJHbHRx3b1Jr3ua5ga0Tp/L39vJ2GwWthFxpez2hhLb8Q8EXwXVemL42W8fOZzmF5lZbmjST4bpirnJvmR8HT/RI+1lkjb/I2OaZZ71o2C2H5xDaD8AaRNE6kI6Yf1pMSNnOpNK8vMHM/PwreIOs48Cr3Ej767ZOPsnwtG9IZJZu5Wj59zlNPPbVMEpCABsqsCNmILFeLbaJ5vbBMzvUxXradyNuccsopBV7kGHgVVUisJ2XEWMEGGynb+hx86x0fCjARfCy/hI8WeuRNlo/mySb3UdIxzauokY143lXh2yMd65GNzvvMNR9v41Yrt9kCNFYJXlCWCusWLbCrwadv0MPgK5s2WT7wLD8MPj2phYQnG65yYeA1PPvtt9/KoBN/T/PGbTasbNzsRvPgzYTQfOIbk22+S2WVD1bYuWq+hjcHBV5Dxess4Vd8y3lXmrxN/DxXWVt+lGwGNZ/YxjjnzGUTG7hH7BnPeEaplIBEkfHxpGNCeViFVT/UBb2wmTdSgWf5hYVfSMvXmh9mea5yw8omMbjwwO0q9EvzBpkSmMn9AGCUn/e5QdqZ3/yfSjYKXqUFP+pmIVHlEj6eo0++0JbXsKi0vM0wzUc2ozRv4o3/5+cn+ZVmUwtbw7u5c7DCBn6U5gPv9sQlfB/Nr2Z5UaXOyGreZq6Wz51ONO8XC5GNzofGKQvND4tt4ir9dmTmfn4QHqBGahD+TW9606qNFHi3erWmpgr7PwVPNqQwaPlRrrKWzVws71KfeOKJ5Sb+yEa3T0VNP3aUbEhMf1ZHZi6aB/+3v/2t/N478Pw6+HRIRlkePI8jIgWfKLWv9ps1vxo8yxu3GRe+L3S2Xxf4DW35DPf51YLwoJYNHx/Nj7K8ClvLJpbsmzdZPhoFn8AMENgMOMlHwQPfMPAsv4TvqZvesiGZaJ6rfPKTn3wuzZNLNB8/PzjoNDfZAM+stUbK777JxuSCRkqF5W3kNO+7DQNfWx68J0wEXiMVb7Mh4Vk+shmEXwjLRzY0z/JkYfxx0PI0v5ZsZt4NDDw/T/NpdMCSi/hGxfULNQUb1LzYxj7aiA0BD6YvvNZ5Cd+nfRgmm4WxfB3bPOEJTyj6DXwd24zSvG3pnubdv9CaerewThT4v/zlL90SvtH0//8snwr75z//uTRS0XBcZWIbT57QSFkygSwos73Fj4CN8bemJsvX8GmkVMDV4NNYbXh4IbGWtrb8hoQX2wzKZhj8hpFNosraVdayGYQ3ogaeZFwBhZXTvLtiW1OT5pfwG9XycZW8Dze5IWXDz9dPm4irjOb9mH0UvDpA8x6J2pqaNF/7ec/5GPQ2OiNc5TjwMw/Mpgm/0JafOXxcJc2vJhuPiBml+cQ2Cykbjdpmm20238BsNcuvVmGX8C0+Npr/05/+dC7N67NykfHzq2me5ecSz6fAHhb+uMc9rvh5FTBPjksLOw58HrqZY/bJmxqpnGAJf87jTmOQPvlElvfsvWGyoXkhAhkJyhKYpUOScILm5yabUfCZSPaEXL/KGdUBn4ufz6Udpflh8MP6sHOF72P5DQGfoT7W72P56F1O85aZW14DlQJ4tnA6I7WfJxuV1sOpRv1CzfZmEmdaYZfw58hm7pZPVDmObFJpbTsX2aio0fxvf/vbc43Pi2UyuVBrPo1UPeiUDvhJJ50Uz9s7b2phh8GLElvg//73v/eGzg5zg3cVhAcLCT932XhfjjkpVgQT2eR2XE/H9bgMFdX3Futmy2N5E9GtaSLZ/PrXv14V/uCDDy7PvqnBwbtDhLchmw0NP+xBJQsNP1fZpAOel0Sk0RnUPNlsOMsPg6/9fCrsKPg8Qmkuml/CnzNuM3NvM2h5kqF7w3tiG+M2YvpRsuFtMuhkUq41Nfn5Gl4jBUSjY941I2YCs1HwvM2GgWd18PVw38LAx/ILBe8VHbVs+sCTDlc5N8179nwLvCul0uoGzh2+r+Y3FPxqmvdExUSVCYnnBq8LGFf5s5/9bGLZmJRrTb39PPDA//jHPy53tA5aXgNlec973jNy0IlrdXffCSec0Mre/7FIteV/8pOfnOt23HibceDVk5nD15YP/MJYflrwc7E8gWbc5oc//GG5u6+v5Xkdfl4jNdMKOwx+0M+vpXmVNS3sEr6Pvxolm4TEoyyfgVaymbvlf/CDHxTNAyEdnRHxfDojeUNpJtTIRQFsm9jGG0tbU+9Gqtb8NOBNDbWmdYHXESGdcSy/kPCGP4TEc4P//ve/P1Tzoyyf6JLmtQ1+8GKwtjVNJBsvcDMdOVhhh8HH06i0gfei84WA53EUYMPAk00sTwZxlcMsn47I3OETz3/3u99d0TyohMTgLfE2LB54uW0VVkisE9+amjSfm0K/853vrARmoIbBmwkMfAoQeM8JOf7441vZ+3dGnOl/Bt5vRkhg4SzvdfGpsOATmNWaHyUb7nIuskmFBa9Dwc+Dr29BT4VdDV4L+4tf/GK2ml9o+FTYhbb8scceW4KryKaP5lXyucgmPalvfOMbpdK1eJt0RgzWtqamRirwxxxzTDO8q8XyCwfPM80dfhLZgOfnDda2polk87Wvfa1c+r6a10CJbwRmP/3pT1vZ22KbaH4SeAVYwve9bq2WT1eQ1edu+S9/+cul0uXlb4ltMgvu7Y2Dd3HzNOqIhWwMk7emiSqsl5DzGIPwgjIvMvfGUnNS6b+mU7KEb33bRTS/lmy8sXTDysY7wMkmgVk072Yh0vGu2EiG1usKax+aNynXmibSfF/4FICnCfyPfvSjVvbJGqlpwC+05WcOn+vMVdItCdDzMM1H5yRTyyZ+3qhba2rSfE42CJ+eVF1hV4M3SjxX+HgbkAsHz3qRTV94kpur5VvgxfIKbHzeGH9rmljzLfAqLnjPaDXS3Jomhm/RfCw/d/gWy88NXlCWwOxLX/pS8fPGYGo/bxJZbCMwi2+v/XzgaX6msjFOGfgvfOELBd60JDjPpzT/Cly+GrxGylUzQdGaemu+hj/qqKMmhp+b5RcSPkPcn//851c0T8d5nPU4suEqZy4bes8Q9+c+97kCAISGveTQXR/0Lqf5UbGNSq7CGiZvTb01Dz6WXzh44P8Tlv/sZz97HtkYs6H5tWTDvc5cNvQZP3/EEUcUAJrn52neCz5zp5NBp7oDngZL5fY6VvDf/OY3WyU/WR+2hgfUAm9qqDX1rrCjLL/Q8K2ymbvl+ew+8Bm38cIIsyutaSqyWcI3mH9dLS88GOYq5yqbtLCHHXZY6YeSDSCu0is60hkxRj/sxokNAa9B0g9dKPgEZgtt+YWEj+XpW3wiyKJjT/5PbCM4G6V5rbF5LH7eXG5rmsjb1PA6I33gBWbgjfG3piU82bC8Puy4smF5nmpustHx0Imm31F+flgjFc17e7sZxdY0kWz0lmp4ryEbbKRGdcBdLS+AM+rWmpbwkc24liebuVueL+fn+8KrH0IKsvniF7/YqprJ+rAmzvjqNFLjWp5nCrxRt9Y0keanAW+kuTX9/4bX0ETzBx100FiukmxIjZ+fuWxymQ899NBSYbWWKqG3UecuJ4OthxxyyNCBVoNUiW2Md7amJtnkZOBZfhA+Q9yrwbtaW2yxRTdXeK5yYeEX1vJkwc/vs88+JaqM5hdCNkv4eXkbfdRRsiGd1byNSj5zb6PznckFI2IAaJ7v3n///YufB25ROBGkmN5AbCYX5BopBTfG35p6+/lR8FrNPvACM/Cf/vSnW9n7R5VL+HOeODFzy7vG0bw7Vls0n8Bsyy23nK3mR8H30fwSftK7uGvZ1Javx+eHucq5Wj6TCx57RPPpjOy3337FzxvPUQB+Xpw/6Od9Zh+dkZm6Spo/++yzi2/2AFnw6YCPC+9qaGHBf+YznynHavnTu5Fawp8zPj8Xy0fzZAOAfkkh4cE4micbg06HH354i2LKPk2yCbyH4wMAolIecMABY1VY3kYwp5EyNdSapgYvUlxY+D6W5yrnZvlMqJGNS19rnt6N2fDzhkaG+XmysY99jee3pibZ5GRegrL11lsXEJD8fCqrzoixzGHwOi7aBvC2a03rAp+e1DjwrlJrWsLTby2bcS2/1VZbzVc222yzTfHzGqlofi34VFjwpNWaJpbNJPAqLK/UmuYKz/Jzg3/HO97RDbM8INIZ5W3mKpt0wD0GiZ/XWtaa1zjx96PgbauSs7xtW1OTbJbwS8s3CC6y8VvAFs0Ln/fdd98S28zc2wTe718nhZ95IzVN+LlZnmz4+T6ukmQs+rtcJZfamnq7SlY/7bTTyvncEAdAH1bDA0jnQgOV27X4cy9K8fyD3N2au5923HHHsu/M4J3ozDPPLOfba6+9iuVZf/fddy93chhFM6rgoYPe+ALad5Zdd921LDvvvHN5XsKd7nSn7pGPfGQre//JhejdGR/wgAd0V7ziFbs73vGO3T3ucY/uIQ95SHmwuPdnPuYxj+ke+9jHdo9+9KO7hz/84eW7e93rXt0tb3nL7kpXulJ3yUtesjvf+c7X3fWud50dvDOlAHe5y10KAIh6udCFLrTy//nPf/6V9WxzwQtesLvABS5Qlitc4Qqzg9f5Tgf8dre73QoYSEAAr3Wta3XXu971uotf/OIr3/u8LshFLnKRle9Sh/qWoqnC5iQ3v/nNVwBiVfm1r33t7mY3u1l3mctcZuV74IFXyPr/1neB94YPuErLwoGuYcDf5CY36S51qUud5/u6ANn39NNPz2F75c3wp5xySne5y13uPHCAFOqmN71pd+lLX3ro9ylA4FufkNsbPpX1xBNP7C52sYsNhbvOda5TLK8yAgxs8tQNFdf3iemN+zt+zrHWZegNn8rqNdqBCWD+v+51r9vd+MY37q585SsPLRxoHimF0IhJ4A3i5hxTh88BPb08l30QnuXBX+UqV1nZRsGy2P7CF77wSuG9plUCblk3ywfeI3lHwafCXvWqV13ZJuC5OvaN5R/1qEeVw7J87YpzrlF5b9nkQMcdd1wBC0zgQAX+ale72nngfZ99onktsxSrZ84r5xqVN8P71fxqliebq1/96ivbpHABT+4Yt7rVrQofuQBfd3j3AAd+EIzlV4Mf3F6cc8YZZ5QCzKTC6gFNC95xEiJEOqOkUn/eLBsTC06ayx9r+ozlb3SjG3XXuMY1hhYw22Zf+3ixs8o6E3jzT04ajxEgn3GVN7zhDUsewHw/LLePd4pLwo51d5V6RU46CNcX3vYWT6+QzjrrrPWH32677cpJ4+5i0VZ4XUiJp1k3y+fAnmwLdFqW33bbbQs8r0P346TeFTbwD3vYw0Za/gY3uEGpsNe//vVLGJBC5urUue8suo4Sza97bKP/mhPXcNZr+HQJa+B6PcfwFjyJcWKg8sEqf3pbPse6+93vPlI2LfD3v//9y6HHtbqNm+Fvf/vbF/hYNhbsa3lXwT7CaJ5mJt5GT8lJeRsAya1rpPh5IUIKV0ulXncMbYXtNFTSuspGpTI64MQBqeFZMfDi9nq7bJ888PK8K3Zc6TTJRv814W4gangFEx7ohGeII9sN5qCz9H0bexO891te9rKXPZdFAw8k8KQ1DnxCjLzCYF1lc9JJJ3UXvehFV+CBg2ZV6/E2rJ/hj0GL53/7pV5kxHjdGikVymuUcqlZbRA+eldhM/wR2ME8hZa7Z0daV3ivjQ888GHw9A4+o2aD0PX/OVbdES+lWONPk+Y9dj0ndMlreFeCXOhdAdaCdxwFkT/iEY8ouHz9OKkJ3rvTclLwsaLP1AXwWTJ2k20Gc/ukwj70oQ8tzOsqG8+kcVJLrB4AI8PAU2lHdcJTiBxHbpy/T2qyvCmbnDTQyS9xiUusWF3FveY1r7mybYDrPMeRm6joM+jaBJ/+K+BByxsJiGSExEKFANbQWfed4/jf+sknn7y+4YFfouWk4GN1n3GNvAyrk44GKwUMcJ3bx5LGrM8Lnpss75YsJwQxCK/l5WWieXkaoRq6Xq/h+7z4swnerF7gQcTj+Aw8Nwma9UlonOAsBezzYPEmeL+yARq5sH6kcfnLX75M6dA7eAUJvH2yxPL1cax7idy4qQl+0003LRCAQdTSMaFQW956pi1TMe0DNLnPY3lztOOmJvgHPehB54LPFQDE3ZEKq7O+dfOuKaQ829fw9rWkIz5OAZrg73nPe5YTxVqxqJMDHYRP7J/tBuEVIscy4TxuaoK/7W1vuwLvxLU1zYYMwte+PgWIpZNnfut+97vfuOxtHXDj6U5aaz3WZOXAx+Oky2ifbJdC+yxWt27fcVOT5fnx+qS1NYUDgaf7aL+u3ClEXZA0Uho53cxxUm94EV9k4OSBAmQxBzsIn4aqlpd9A28/x8kVSEd8rQL0hjcJkDA3wHWuYIPwrE/TgQ/4IHysv27wAqd07Zw8DRAwhcjYfCSTPDdRpADJU/BY3f/jvq23t+VZJRYDnpMmT8saaLlALQ0VaBIJdApdy2/c53/0hq87304YkOTD4MmoHipJ4YEHPoVXKLd2jZN6w2fyOLABkVtqi9frWl5gYLNPDR+928Z9a+Ok3vBelecEJBOrBcpnieVrcOuZDVfo7Jc8hUn9cYvXOGkseF0z45OSh6YFts4BODmJkE4WbtJ64COP2uqOUy8PfOADy7ky0TBq7HIs+Hqq5cgjjxwKD8alZ/mAJ2f5TGtGboGP9ZMrhLv+pEw0TARfj6P4gW5t8fqk3KEQGDSLx+quBhfq6kQiNXy97thGHOop/FFjl2NZvj6QXys4QQ3hf4uRA/eWxeLJWT6t7FoFyLHTUI0Cd2XGhk8B3HobWHmsZp1HSf81lpcHXp1Ioet9cwx5jp2GSjgyqgBjwTtARrHclZQTBCD/C4dpPsCg68VoWuBr4Ho9x3IzkjRK72NbHngO4pbznCDwsRitDsKnIHQvrMi2NXC9nmPnRRKptKUkA3/Gsnw9K+3t0zlB4GNNEeUweODkpH8b0Oyb/5Pn2H40KU0ED9wSyz/4wQ8+F7yTBT5WTh7J5P/ccwZ0LfjddtutwDtvs+btXGs+/df65IFn4QDXebzOWoOuKZRju8LSRPAOAD7eJvOvgQeeS04aNXTWdQNZf61B1xreDHvOXVaG/BlL8/ZLQ5X+6yC8lrMerwm4PFOb6YHZN/un4Mnz3X3ve9+CGy83hH1tP09vtWw0QjmBE8byfPhqlicphRgMzAJd547vDvFIRj4sjWX5SMZB6HcQ3v9a18Q1tdWt20fByEchgdqnBq7XfUdimRGfCvypp5469HZDJ+MGV4NPZRa8rQbvWFly69ZE8AmHxRuZIHOCQFhPA8XKg5av/9fKZr/a2lmvj3v88ccXtTS7Snunsoo3MrJVn8S6ysjypFHDZj3SIa+14B3PkhffTgSfGu8+95y4hlcJQdP1qNED8H7pkL5s9o/F6zzwuWluWGX12VgVNvDe2Z0D1zlrsjBdj5INP69wBmKzbw1cr+f7Aw88sHBPpPnA1/OvOYFcKJxOiAIkHKgl43NLGqphsPUxrXuCizQRfHb+1re+Vaw2eGKDq+mEJDBTgBTC1Qh83VA5DsgcL+spxCabbFLgY7zyT/VnLNlke8/NzoETz6TTHSuTRlwm/asL4BXE5+kO1qDqjONZuFL/+36tEKEXvGfR5KQ5QaZxYnE5K4O25HPwPtfKpuCDlnfMFMR5/OpNypWPEZP3gvd7PweNleQ0DMxEms5GJALaVbC4KoGXDxv+AJ3COAcncIc73KHTMI5KY8HHz/q1fSzvRMYfdUAC4zuNkEIY6gCuLgAOvILU29vHkitpXR1yn6VXWa72M6Q14YEH3k9HHdzJDXNosHKZ66sRGL+jUkFdDVfCYj2DrvZxLPXGPgquv+ChtV6/qkMirsr5B6/AmvD0Fs3tvffe5SQqlRPmUgfc1chnYFIIsJnucTXSUAXadhowlvbzVM+J8shg9xebD2iGt2OiSgcNVEsOVt3QLkTfCuLXOrG253+kAB7wZj5gVBrL8olttt9+++4+97lPWcza3fve9+78rPRud7tbd+c737ncL6Ondetb37rE47e5zW26W9ziFkX3dcUlJXVAx0ZDZEadYXbYYYdibSMURordKb7a7Ypjweeyaa6dyE+m8zw++Z577lmWPfbYo3vOc57T7bTTTiuLGW0g9RJZ0DWLKwDDyEmF5Y0Um1A+4YQTRt6i2wuetwGmpfVyk69//evlTVxGjr2Z2mfywUXj5tc98qOPPro8r48RonGw5KKAflSgZfW/uQCGM9AbA9YS6gVvnNIl9YpIEGAsHoCfRSQItF5sm8WrOY455phiaW/KcBV22WWX4l2sG94++OCDV+544ucNsU8Mr5FSiZwcHFAL8Fh2sDC+M8eUwskVgBuk6ciFRMAnhufhdII4i1Huck3Lu0zpSfltFGsB8KhGOdiAg4p8SMlCWuRk8b+Ce2OdX+67e4Tu6dvjM0weg2blWHow7yUbO8dVer2kYCm/rNcKbrbZZmXZfPPNi4bp2NWhWd6DJLQPHiHgYQ15QCGdc5H8uQJKvJpzxVg16LD1NS0PnjXoTm/enUipsB5876mHnvbvB7lkpV6o2N6z47dUZvZ4J+AKoCDulOKVFCSxC2ChrwLE2sOA68/GhmeRUXF1fcBx13MssJbAa1GnZnkwLGFxQlch+aCF/B/N1oXw2bDPc9xsmwJFpvl8VL6m5UftuBE+X8LP6yosLb+0fIMFlrJpMNpUdllafipmbDjI0vINRpvKLv8H8KKCM2e4Gs4AAAAASUVORK5CYII=;" parent="1" vertex="1">
          <mxGeometry x="190" y="190" width="17.63" height="150" as="geometry" />
        </mxCell>
        <mxCell id="cMJ7TMU19dDWg3M_NZdB-4" value="" style="html=1;aspect=fixed;strokeColor=none;shadow=0;align=center;verticalAlign=top;fillColor=#3B8DF1;shape=mxgraph.gcp2.phone_android" parent="1" vertex="1">
          <mxGeometry x="520" y="220" width="56" height="100" as="geometry" />
        </mxCell>
        <mxCell id="cMJ7TMU19dDWg3M_NZdB-5" value="私有频段" style="text;html=1;strokeColor=none;fillColor=none;align=center;verticalAlign=middle;whiteSpace=wrap;rounded=0;" parent="1" vertex="1">
          <mxGeometry x="250" y="230" width="60" height="20" as="geometry" />
        </mxCell>
        <mxCell id="cMJ7TMU19dDWg3M_NZdB-6" value="" style="endArrow=classic;startArrow=classic;html=1;" parent="1" edge="1">
          <mxGeometry width="50" height="50" relative="1" as="geometry">
            <mxPoint x="240" y="269.5" as="sourcePoint" />
            <mxPoint x="320" y="269.5" as="targetPoint" />
          </mxGeometry>
        </mxCell>
        <mxCell id="cMJ7TMU19dDWg3M_NZdB-7" value="" style="endArrow=classic;startArrow=classic;html=1;" parent="1" edge="1">
          <mxGeometry width="50" height="50" relative="1" as="geometry">
            <mxPoint x="410" y="269.5" as="sourcePoint" />
            <mxPoint x="490" y="269.5" as="targetPoint" />
          </mxGeometry>
        </mxCell>
        <mxCell id="cMJ7TMU19dDWg3M_NZdB-8" value="蓝牙" style="text;html=1;strokeColor=none;fillColor=none;align=center;verticalAlign=middle;whiteSpace=wrap;rounded=0;" parent="1" vertex="1">
          <mxGeometry x="420" y="230" width="60" height="20" as="geometry" />
        </mxCell>
      </root>
    </mxGraphModel>
  </diagram>
</mxfile>
